<svg xmlns="http://www.w3.org/2000/svg" xmlns:xlink="http://www.w3.org/1999/xlink" viewBox="0 0 291.17 272.75"><defs><linearGradient id="linear-gradient" x1="37.75" y1="150.72" x2="37.75" y2="50.35" gradientUnits="userSpaceOnUse"><stop offset="0" stop-color="#20d8e5"/><stop offset="1" stop-color="#20d8e5" stop-opacity="0"/></linearGradient></defs><g style="isolation:isolate"><g id="Layer_2" data-name="Layer 2"><g id="OBJECTS"><path d="M280.83,169.66,189,114.71c-4.6-2.66-12-2.66-16.6,0l-57.75,32.93c-4.57,2.65-4.55,7,.05,9.62l30,17.93a84.18,84.18,0,0,0-12.67-1,64.38,64.38,0,0,0-20.89,3.22,4.14,4.14,0,0,0-3,3.45,3.83,3.83,0,0,0,2.07,3.69,6.37,6.37,0,0,0,3.15.79,6.85,6.85,0,0,0,2.14-.34,54.87,54.87,0,0,1,16.94-2.38c12.09,0,24.19,3,33.19,8.17,7.91,4.57,12.9,10.62,13.7,16.59a11.61,11.61,0,0,1-3.35,9.9,3.57,3.57,0,0,0-1.06,3,3.8,3.8,0,0,0,2,2.77,5.89,5.89,0,0,0,2.92.74,5.49,5.49,0,0,0,3.76-1.36c4.72-4.45,6.85-9.89,6.17-15.73a20.69,20.69,0,0,0-1.46-5.45l18.3,11c4.6,2.66,12,2.66,16.6,0l57.75-32.93C285.45,176.63,285.43,172.32,280.83,169.66Z" fill="#cccce2" opacity="0.2"/><g style="isolation:isolate"><path d="M185.29,201.71v5.73c0-6.81-4.67-14.54-15.13-20.58-16.28-9.4-39-10.43-52.29-6a4.06,4.06,0,0,1-3.13-.24,1.28,1.28,0,0,1-.77-1.07v-5.73a1.3,1.3,0,0,0,.77,1.08,4.11,4.11,0,0,0,3.13.23c13.31-4.42,36-3.39,52.29,6C180.63,187.17,185.31,194.9,185.29,201.71Z" fill="#a6a1e2"/><path d="M190.41,201.45v5.73c0,4.21-1.81,8.23-5.46,11.68a3.39,3.39,0,0,1-3.54.25,1.15,1.15,0,0,1-.67-.93l0-5.73a1.13,1.13,0,0,0,.66.93,3.41,3.41,0,0,0,3.55-.25A15.94,15.94,0,0,0,190.41,201.45Z" fill="#a6a1e2"/><path d="M173.48,179.2c17.37,10,21.71,24.27,11.48,33.93a3.41,3.41,0,0,1-3.55.25c-.73-.43-.87-1.08-.35-1.6,7.68-7.73,5.4-21.24-10.9-30.65s-39-10.43-52.29-6a4.11,4.11,0,0,1-3.13-.23c-1.19-.69-1-1.85.48-2.35C131.83,166.74,156.22,169.24,173.48,179.2Z" fill="#c1c1e8"/></g><g style="isolation:isolate"><path d="M173.42,144.47c2.66,1.54,2.67,4,0,5.56a10.59,10.59,0,0,1-9.59,0c-2.66-1.54-2.67-4,0-5.56A10.59,10.59,0,0,1,173.42,144.47Z" fill="#bfdaef"/></g><g style="isolation:isolate"><path d="M169.32,169.61a2.2,2.2,0,0,0,2.21.21l-6.22,3.61a2.19,2.19,0,0,1-2.2-.21Z" fill="#4d62e2"/><path d="M169.32,169.61l-6.21,3.61a6.79,6.79,0,0,1-3.08-5.34l6.21-3.61L160,167.88a2.18,2.18,0,0,1,.9-2l6.22-3.61a2.17,2.17,0,0,0-.91,2A6.84,6.84,0,0,0,169.32,169.61Z" fill="#4d62e2"/><path d="M160.93,165.89l6.22-3.61a2.17,2.17,0,0,1,2.19.22l-6.21,3.61A2.19,2.19,0,0,0,160.93,165.89Z" fill="#293891"/><path d="M171.53,169.82l-6.22,3.61a2.13,2.13,0,0,0,.9-2,6.79,6.79,0,0,0-3.08-5.34l6.21-3.61a6.82,6.82,0,0,1,3.09,5.34A2.15,2.15,0,0,1,171.53,169.82Z" fill="#293891"/><path d="M163.13,166.11a6.79,6.79,0,0,1,3.08,5.34c0,2-1.39,2.75-3.1,1.77a6.79,6.79,0,0,1-3.08-5.34C160,165.92,161.42,165.12,163.13,166.11Z" fill="#6a58db"/><polygon points="104.64 127.26 110.86 123.65 227.86 191.21 221.65 194.82 104.64 127.26" fill="#4d62e2"/><path d="M104.64,127.26l117,67.56,0,12.5a5.09,5.09,0,0,1-.05.69c-.3,2.11-2,2.87-4.08,1.68l-108.76-62.8a8.84,8.84,0,0,1-3.49-4.24,7.59,7.59,0,0,1-.62-2.88Zm58.47,46c1.71,1,3.1.19,3.1-1.77a6.79,6.79,0,0,0-3.08-5.34c-1.71-1-3.1-.19-3.1,1.77a6.79,6.79,0,0,0,3.08,5.34" fill="#d2d1f2"/><path d="M221.65,194.82l0,12.5a5.09,5.09,0,0,1-.05.69,2.56,2.56,0,0,1-1.15,2l6.21-3.61a2.57,2.57,0,0,0,1.16-2c0-.22,0-.45.05-.69l0-12.51Z" fill="#a6a1e2"/></g><g style="isolation:isolate"><path d="M113,122.41,106.82,126c0-2.77.21-55.22.36-68.42q3.09-1.81,6.2-3.61-3.1,1.8-6.2,3.61v-.06l6.21-3.61C113.25,67.06,113,119.65,113,122.41Z" fill="#cfe7f9"/><path d="M114.1,52.4a1.71,1.71,0,0,0-.71,1.54l-5.49,3.19-.72.42a1.67,1.67,0,0,1,.71-1.54Z" fill="#cfe7f9"/><path d="M107.89,56l6.21-3.61a1.73,1.73,0,0,1,1.75.18l-6.22,3.61A1.71,1.71,0,0,0,107.89,56Z" fill="#252544"/><polygon points="106.82 126.03 113.03 122.41 225.7 187.46 219.49 191.07 106.82 126.03" fill="#cfe7f9"/><path d="M217.59,115.62a9.39,9.39,0,0,1,4.26,7.38l-.2,71.82-117-67.56.21-71.81c0-2.71,1.93-3.81,4.28-2.45ZM106.82,126l112.67,65c0-2.77.1-55.42,0-68.65a5.39,5.39,0,0,0-2.44-4.2l-107.45-62c-1.34-.78-2.44-.17-2.45,1.36-.15,13.12-.35,65.71-.36,68.48" fill="#3f3073"/><path d="M217.08,118.22a5.39,5.39,0,0,1,2.44,4.2c.07,13.23,0,65.88,0,68.65L106.82,126c0-2.77.21-55.36.36-68.48,0-1.53,1.11-2.14,2.45-1.36Z" fill="#20d8e5"/><path d="M109.25,50.9l-3.16,1.81a3,3,0,0,1,3,.29l108.46,62.62a9.39,9.39,0,0,1,4.26,7.38l-.2,71.82,6.21-3.62.18-67.73A15.49,15.49,0,0,0,220.28,110L118,50.92A8.79,8.79,0,0,0,109.25,50.9Z" fill="#322960"/></g><polygon points="139.72 95.91 139.62 128.06 117.22 115.13 117.31 82.97 139.72 95.91" fill="#ed4d6d"/><polygon points="174.43 115.58 174.34 147.74 151.93 134.8 152.02 102.64 174.43 115.58" fill="#ff9069"/><polygon points="208.38 135.22 208.29 167.38 185.88 154.44 185.97 122.28 208.38 135.22" fill="#eaf370"/><path d="M125.73,70.41a3.43,3.43,0,0,1,1.55,2.69c0,1-.7,1.39-1.56.9l-10.78-6.22a3.45,3.45,0,0,1-1.55-2.7c0-1,.7-1.38,1.56-.89Z" fill="#fff"/><path d="M185.21,105.09a2,2,0,0,1,.88,1.52c0,.57-.41.79-.89.51l-7.89-4.56a1.93,1.93,0,0,1-.88-1.52c0-.56.4-.79.88-.51Z" fill="#1ab0c4"/><path d="M199,112.66a1.92,1.92,0,0,1,.88,1.53c0,.56-.4.78-.88.5l-7.89-4.55a1.9,1.9,0,0,1-.88-1.53c0-.55.39-.79.88-.5Z" fill="#1ab0c4"/><path d="M212.13,120.13a2,2,0,0,1,.88,1.52c0,.57-.41.79-.89.51l-7.89-4.56a1.93,1.93,0,0,1-.88-1.52c0-.56.39-.79.88-.51Z" fill="#1ab0c4"/><g opacity="0.2"><path d="M249.79,268.8a50.35,50.35,0,0,1-12-1.85l-7.16,2.21-.55-.19a33.5,33.5,0,0,1-5.9-2.64,22.65,22.65,0,0,1-4.57-3.43l-1.17-1.16,3.73-4.32a14.35,14.35,0,0,1-2.75-6l-7.06-2.54,0-1.27a13,13,0,0,1,4-8.93l.49-.5,8.18-.27a26.69,26.69,0,0,1,3.94-2.78,32.53,32.53,0,0,1,4.27-2.08l.24-4.75,1.16-.38a46.08,46.08,0,0,1,13.87-2.16h.67l4.51,4a50.51,50.51,0,0,1,12,1.85l7.15-2.22.55.19a33.69,33.69,0,0,1,5.91,2.65,22.35,22.35,0,0,1,4.56,3.42l1.16,1.16-3.71,4.32a14.5,14.5,0,0,1,2.73,6l7.07,2.54,0,1.27a13,13,0,0,1-4,8.93l-.5.5-8.17.27a25.38,25.38,0,0,1-3.95,2.78,35.06,35.06,0,0,1-4.26,2.09l-.23,4.75-1.16.37A45.64,45.64,0,0,1,255,272.75h-.66Zm1.94-30.87a24.63,24.63,0,0,0-12.16,2.9c-2.9,1.68-4.49,3.82-4.49,6s1.63,4.36,4.57,6.06a24.8,24.8,0,0,0,12.19,2.9h0A24.6,24.6,0,0,0,264,252.9c2.9-1.68,4.49-3.82,4.49-6s-1.62-4.37-4.57-6.06A24.75,24.75,0,0,0,251.73,237.93Z" fill="#cccce2"/></g><g style="isolation:isolate"><polygon points="277.88 232.43 277.86 239.22 274.53 243.1 274.55 236.31 277.88 232.43" fill="#a6a1e2"/><path d="M270.22,243.92v6.79c0-3.11-2-6.22-6.16-8.6-8.17-4.71-21.38-4.71-29.5,0-4,2.34-6.05,5.41-6.06,8.48l0-6.79c0-3.07,2-6.14,6.06-8.48,8.12-4.72,21.33-4.72,29.5,0C268.18,237.7,270.23,240.81,270.22,243.92Z" fill="#a6a1e2"/><polygon points="221 244.67 220.98 251.46 214.64 249.18 214.66 242.39 221 244.67" fill="#a6a1e2"/><path d="M224.19,251.43l0,6.79a11.72,11.72,0,0,1-3.19-6.76l0-6.79A11.72,11.72,0,0,0,224.19,251.43Z" fill="#a6a1e2"/><path d="M284.07,245.35l0,6.79a10.36,10.36,0,0,1-3.26,7.14l0-6.79A10.36,10.36,0,0,0,284.07,245.35Z" fill="#a6a1e2"/><polygon points="280.81 252.49 280.79 259.28 273.31 259.53 273.33 252.74 280.81 252.49" fill="#a6a1e2"/><path d="M273.33,252.74l0,6.79a21.83,21.83,0,0,1-3.82,2.76,29.7,29.7,0,0,1-4.69,2.2l0-6.79a29.7,29.7,0,0,0,4.69-2.2A21.83,21.83,0,0,0,273.33,252.74Z" fill="#a6a1e2"/><path d="M248.16,260.3l0,6.79a45,45,0,0,1-11.69-1.8l0-6.79A45,45,0,0,0,248.16,260.3Z" fill="#a6a1e2"/><path d="M229.9,260.53l0,6.79a29.68,29.68,0,0,1-5.16-2.3,19.1,19.1,0,0,1-3.89-2.92l0-6.79a19.1,19.1,0,0,0,3.89,2.92A29.68,29.68,0,0,0,229.9,260.53Z" fill="#a6a1e2"/><polygon points="236.47 258.5 236.45 265.29 229.88 267.32 229.9 260.53 236.47 258.5" fill="#a6a1e2"/><polygon points="264.82 257.7 264.8 264.49 264.59 268.81 264.61 262.02 264.82 257.7" fill="#a6a1e2"/><polygon points="252.29 263.93 252.27 270.72 248.14 267.09 248.16 260.3 252.29 263.93" fill="#a6a1e2"/><path d="M264.82,257.7l-.21,4.32a40.22,40.22,0,0,1-12.32,1.91l-4.13-3.63a45,45,0,0,1-11.69-1.8l-6.57,2a29.68,29.68,0,0,1-5.16-2.3,19.1,19.1,0,0,1-3.89-2.92l3.34-3.88a11.72,11.72,0,0,1-3.19-6.76l-6.34-2.28a10.36,10.36,0,0,1,3.26-7.14l7.48-.25a21.83,21.83,0,0,1,3.82-2.76,30.13,30.13,0,0,1,4.69-2.2l.22-4.31a40.46,40.46,0,0,1,12.31-1.92l4.14,3.63a45.38,45.38,0,0,1,11.69,1.8l6.56-2a30.26,30.26,0,0,1,5.18,2.32,18.89,18.89,0,0,1,3.87,2.9l-3.33,3.88a11.74,11.74,0,0,1,3.17,6.76l6.35,2.28a10.36,10.36,0,0,1-3.26,7.14l-7.48.25a21.83,21.83,0,0,1-3.82,2.76A29.7,29.7,0,0,1,264.82,257.7Zm-30.15-5.29c8.17,4.72,21.37,4.72,29.49,0s8.08-12.37-.09-17.09-21.38-4.71-29.5,0-8.07,12.36.1,17.08" fill="#d2d1f2"/><path d="M264.61,262l0,6.79a40.17,40.17,0,0,1-12.32,1.91l0-6.79A40.22,40.22,0,0,0,264.61,262Z" fill="#a6a1e2"/></g><g opacity="0.2"><path d="M176.77,266.87a38.74,38.74,0,0,1-9-1.39l-5.49,1.7-.54-.19a26.4,26.4,0,0,1-4.59-2.05,17.62,17.62,0,0,1-3.57-2.68l-1.16-1.16,2.87-3.35a11.52,11.52,0,0,1-1.93-4.25l-5.46-2,0-1.28a10.34,10.34,0,0,1,3.22-7.1l.49-.5,6.27-.21a20.82,20.82,0,0,1,3-2.07,28.27,28.27,0,0,1,3.07-1.52l.19-3.66,1.16-.37a34.9,34.9,0,0,1,10.73-1.66h.66l3.45,3a38.91,38.91,0,0,1,9,1.4l5.48-1.71.55.19a27,27,0,0,1,4.58,2.05,17.55,17.55,0,0,1,3.58,2.69L204.5,242l-2.9,3.35a11.18,11.18,0,0,1,1.93,4.26l5.46,2,0,1.27a10.31,10.31,0,0,1-3.2,7.1l-.49.51-6.28.21a20.65,20.65,0,0,1-3,2.06A25.78,25.78,0,0,1,193,264.2l-.18,3.66-1.16.37a35.19,35.19,0,0,1-10.72,1.67h-.67Zm1.66-22.77a14.92,14.92,0,0,0-7.28,1.73c-1.58.91-2.48,2.07-2.48,3.18s.92,2.3,2.53,3.23a15,15,0,0,0,7.31,1.73h0a15,15,0,0,0,7.27-1.72c1.58-.92,2.49-2.09,2.49-3.2s-.93-2.3-2.53-3.22A15.07,15.07,0,0,0,178.43,244.1Z" fill="#cccce2"/></g><g style="isolation:isolate"><polygon points="195.09 240.46 195.08 246.71 192.79 249.36 192.8 243.12 195.09 240.46" fill="#a6a1e2"/><path d="M188.7,248.31v6.25c0-1.95-1.29-3.91-3.87-5.4-5.13-3-13.42-3-18.53,0-2.53,1.47-3.8,3.4-3.8,5.32v-6.24c0-1.93,1.27-3.85,3.81-5.32,5.1-3,13.39-3,18.53,0C187.42,244.41,188.71,246.36,188.7,248.31Z" fill="#a6a1e2"/><polygon points="156.22 248.82 156.21 255.07 151.87 253.51 151.89 247.27 156.22 248.82" fill="#a6a1e2"/><path d="M158.4,253.45v6.24a8,8,0,0,1-2.18-4.62v-6.25A8,8,0,0,0,158.4,253.45Z" fill="#a6a1e2"/><path d="M199.31,249.29v6.25a7.08,7.08,0,0,1-2.23,4.87l0-6.24A7.07,7.07,0,0,0,199.31,249.29Z" fill="#a6a1e2"/><polygon points="197.09 254.17 197.07 260.42 191.96 260.59 191.98 254.34 197.09 254.17" fill="#a6a1e2"/><path d="M192,254.34l0,6.25a15.92,15.92,0,0,1-2.61,1.88,19.71,19.71,0,0,1-3.21,1.5l0-6.25a20.87,20.87,0,0,0,3.2-1.49A15.63,15.63,0,0,0,192,254.34Z" fill="#a6a1e2"/><path d="M174.77,259.51v6.24a30.79,30.79,0,0,1-8-1.23v-6.25A31.3,31.3,0,0,0,174.77,259.51Z" fill="#a6a1e2"/><path d="M162.3,259.67v6.24a20.72,20.72,0,0,1-3.54-1.58,12.68,12.68,0,0,1-2.64-2V256.1a12.81,12.81,0,0,0,2.65,2A21,21,0,0,0,162.3,259.67Z" fill="#a6a1e2"/><polygon points="166.79 258.27 166.78 264.52 162.29 265.91 162.3 259.67 166.79 258.27" fill="#a6a1e2"/><polygon points="186.16 257.72 186.15 263.97 186 266.92 186.01 260.68 186.16 257.72" fill="#a6a1e2"/><polygon points="177.6 261.98 177.59 268.23 174.76 265.75 174.77 259.5 177.6 261.98" fill="#a6a1e2"/><path d="M186.16,257.72l-.15,3a27.36,27.36,0,0,1-8.41,1.3l-2.83-2.47a31.3,31.3,0,0,1-8-1.24l-4.49,1.4a21,21,0,0,1-3.53-1.59,12.81,12.81,0,0,1-2.65-2l2.28-2.65a8,8,0,0,1-2.18-4.63l-4.33-1.55a7.08,7.08,0,0,1,2.23-4.88l5.11-.17a15.35,15.35,0,0,1,2.61-1.88,18.51,18.51,0,0,1,3.21-1.5l.14-3a27.38,27.38,0,0,1,8.42-1.3l2.82,2.48a30.87,30.87,0,0,1,8,1.23l4.48-1.4a21,21,0,0,1,3.53,1.58,13.47,13.47,0,0,1,2.66,2l-2.29,2.65a8,8,0,0,1,2.17,4.63l4.34,1.55a7.07,7.07,0,0,1-2.22,4.88l-5.11.17a15.63,15.63,0,0,1-2.62,1.89A20.87,20.87,0,0,1,186.16,257.72Zm-19.79-4.07c5.13,3,13.42,3,18.52,0s5.08-7.77,0-10.73-13.43-3-18.53,0-5.07,7.76.06,10.73" fill="#d2d1f2"/><path d="M186,260.68v6.24a27.67,27.67,0,0,1-8.41,1.31V262A27.36,27.36,0,0,0,186,260.68Z" fill="#a6a1e2"/></g><g style="isolation:isolate"><path d="M211.69,111.82l1.65-.95-1.65.95Z" fill="#e8e8f9"/><path d="M212.35,109.24l1.64-.95-1.64.95Z" fill="#e8e8f9"/><path d="M221.33,120a2.23,2.23,0,0,0,.64-.24l-1.86,1.08a1.84,1.84,0,0,1-.64.24,4.17,4.17,0,0,1-2.87-.7h0a9.27,9.27,0,0,1-2.51-2.17,11.44,11.44,0,0,1-1.76-3l1.86-1.08-1.86,1.08a9.14,9.14,0,0,1-.64-3.32,4.49,4.49,0,0,1,.66-2.58,2.26,2.26,0,0,1,.75-.7l1.86-1.09a2.52,2.52,0,0,0-.75.71,4.57,4.57,0,0,0-.66,2.58,9.4,9.4,0,0,0,.64,3.32,11.23,11.23,0,0,0,1.76,3,9.2,9.2,0,0,0,2.52,2.18A4.15,4.15,0,0,0,221.33,120Zm-9-10.74h0l.09,0,.1-.06.09-.06.11,0,.1-.06.1-.07.11-.06.11-.06.1-.06.11-.06.11-.06.1-.07.11-.06.1-.06.1-.06.1,0h0l-.1,0-.1.06-.1.06-.11.06-.1.07-.11.06-.11.06-.1.06-.11.06-.11.06-.1.07-.1.06-.11,0-.09.06-.1.06-.09,0m-.66,2.58h0l.09,0,.1-.06.1,0,.1-.06.1-.06.11-.06.1-.06.11-.07.11-.06.1-.06.11-.06.11-.06.1-.07.1-.06.11,0,.1-.06h0l-.1.06-.11,0-.1.06-.1.07-.11.06-.11.06-.1.06-.11.06-.11.07-.1.06-.11.06-.1.06-.1.06-.1,0-.1.06-.09,0h0" fill="#e8e8f9"/><path d="M214.58,110.72l1.86-1.09a1.53,1.53,0,0,0-.51.53,3.46,3.46,0,0,0-.37,1.74,6.56,6.56,0,0,0,.36,2.15,6.34,6.34,0,0,0,1,1.9,5.23,5.23,0,0,0,1.51,1.32,2.36,2.36,0,0,0,1.4.4,1,1,0,0,0,.46-.14l-1.87,1.08a1.14,1.14,0,0,1-.45.15,2.48,2.48,0,0,1-1.41-.41,5.19,5.19,0,0,1-1.5-1.32,6.19,6.19,0,0,1-1-1.89,6.37,6.37,0,0,1-.37-2.16,3.48,3.48,0,0,1,.38-1.74A1.41,1.41,0,0,1,214.58,110.72Z" fill="#20d8e5"/><path d="M220.32,117.53l-1.87,1.08a1.3,1.3,0,0,0,.49-.52L220.8,117A1.35,1.35,0,0,1,220.32,117.53Z" fill="#e8e8f9"/><polygon points="218.94 118.09 220.8 117.01 223.04 118.3 221.18 119.38 218.94 118.09" fill="#20d8e5"/><path d="M222,119.74l-1.86,1.08a2.56,2.56,0,0,0,1.07-1.44L223,118.3A2.51,2.51,0,0,1,222,119.74Z" fill="#20d8e5"/><polygon points="222.84 123.86 224.7 122.78 226.65 123.91 224.79 124.99 222.84 123.86" fill="#e8e8f9"/><path d="M220.28,111.66l-1.87,1.08a4.49,4.49,0,0,0-.4-.57,4.84,4.84,0,0,0-1.4-1.2,2.49,2.49,0,0,0-1.51-.42,1.28,1.28,0,0,0-.52.17l1.86-1.09a1.31,1.31,0,0,1,.53-.16,2.54,2.54,0,0,1,1.51.41,5.18,5.18,0,0,1,1.4,1.21A5.81,5.81,0,0,1,220.28,111.66Z" fill="#e8e8f9"/><path d="M220.28,111.66a7,7,0,0,1,.54,1.17L219,113.92a5.53,5.53,0,0,0-.54-1.18Z" fill="#e8e8f9"/><path d="M213.1,108.54l1.86-1.09a2.43,2.43,0,0,1,1-.3,4.5,4.5,0,0,1,2.52.73L216.64,109a4.5,4.5,0,0,0-2.52-.73A2.3,2.3,0,0,0,213.1,108.54Z" fill="#20d8e5"/><polygon points="218.95 113.92 220.81 112.83 223.06 114.13 221.19 115.21 218.95 113.92" fill="#e8e8f9"/><path d="M216.64,109a9.46,9.46,0,0,1,2.85,2.6,10.32,10.32,0,0,1,1.7,3.65L219,113.92a5.54,5.54,0,0,0-.94-1.75,4.84,4.84,0,0,0-1.4-1.2,2.49,2.49,0,0,0-1.51-.42,1.32,1.32,0,0,0-1,.69,3.48,3.48,0,0,0-.38,1.74,6.37,6.37,0,0,0,.37,2.16,6.19,6.19,0,0,0,1,1.89,5.19,5.19,0,0,0,1.5,1.32,2.48,2.48,0,0,0,1.41.41,1.18,1.18,0,0,0,.94-.67l2.24,1.29a2.27,2.27,0,0,1-1.71,1.68,4.17,4.17,0,0,1-2.87-.7,9.27,9.27,0,0,1-2.51-2.17,11.44,11.44,0,0,1-1.76-3,9.14,9.14,0,0,1-.64-3.32,4.49,4.49,0,0,1,.66-2.58,2.29,2.29,0,0,1,1.77-1A4.5,4.5,0,0,1,216.64,109Z" fill="#20d8e5"/><path d="M216.64,109l1.86-1.08a9.22,9.22,0,0,1,2.85,2.6,10.26,10.26,0,0,1,1.71,3.65l-1.87,1.08a10.32,10.32,0,0,0-1.7-3.65A9.46,9.46,0,0,0,216.64,109Z" fill="#20d8e5"/><polygon points="227.41 126.5 229.27 125.42 230.75 126.27 228.88 127.35 227.41 126.5" fill="#e8e8f9"/><polygon points="224.81 117.73 226.67 116.65 226.65 123.91 224.79 124.99 224.81 117.73" fill="#20d8e5"/><polygon points="224.81 117.73 226.67 116.65 229.27 125.42 227.41 126.5 224.81 117.73" fill="#e8e8f9"/><polygon points="222.87 112.7 224.73 111.62 224.7 122.78 222.84 123.86 222.87 112.7" fill="#e8e8f9"/><polygon points="231.48 128.85 233.34 127.77 235.29 128.9 233.43 129.98 231.48 128.85" fill="#e8e8f9"/><polygon points="222.87 112.7 224.73 111.62 226.95 112.9 225.09 113.98 222.87 112.7" fill="#20d8e5"/><polygon points="225.09 113.98 226.95 112.9 230.02 122.98 228.15 124.07 225.09 113.98" fill="#20d8e5"/><path d="M237.41,128.6l.05.11-1.87,1.08a.54.54,0,0,0-.05-.11Z" fill="#e8e8f9"/><polygon points="231.5 121.6 233.37 120.52 230.75 126.27 228.88 127.35 231.5 121.6" fill="#20d8e5"/><polygon points="231.5 121.6 233.37 120.51 233.34 127.77 231.48 128.85 231.5 121.6" fill="#e8e8f9"/><polygon points="233.46 118.82 235.32 117.73 235.29 128.9 233.43 129.98 233.46 118.82" fill="#20d8e5"/><path d="M237.41,128.6l-1.87,1.08a5.09,5.09,0,0,1-.43-2l1.86-1.08A5,5,0,0,0,237.41,128.6Z" fill="#e8e8f9"/><path d="M240.32,131.91,238.46,133a7.92,7.92,0,0,1-1.59-1.31,7.17,7.17,0,0,1-1.28-1.89l1.87-1.08a7.09,7.09,0,0,0,1.28,1.89A7.86,7.86,0,0,0,240.32,131.91Z" fill="#e8e8f9"/><path d="M240.32,131.91l.25.15-1.87,1.08-.24-.15.49-.29Z" fill="#e8e8f9"/><polygon points="235.11 127.73 236.97 126.65 239.06 127.85 237.2 128.94 235.11 127.73" fill="#20d8e5"/><path d="M251.24,150.05l-1.86,1.08a1.28,1.28,0,0,0,.54-1.18l1.86-1.08A1.28,1.28,0,0,1,251.24,150.05Z" fill="#a6a1e2"/><polygon points="231.26 117.55 233.13 116.47 230.02 122.98 228.15 124.07 231.26 117.55" fill="#e8e8f9"/><path d="M241.69,130.39l-1.86,1.08-.09.05a1.29,1.29,0,0,1-1.07-.25,2.81,2.81,0,0,1-1-1,2.7,2.7,0,0,1-.42-1.33l1.86-1.09a2.85,2.85,0,0,0,.42,1.33,3,3,0,0,0,1.05,1,1.28,1.28,0,0,0,1.07.24Z" fill="#20d8e5"/><path d="M242.42,132.67a1.59,1.59,0,0,0,.81-.2l-1.87,1.08a1.56,1.56,0,0,1-.8.2,3.8,3.8,0,0,1-1.86-.61l1.87-1.08A3.84,3.84,0,0,0,242.42,132.67Z" fill="#e8e8f9"/><path d="M240.59,127.34l-1.87,1.08c-.17-.17-.37-.35-.6-.55-.63-.58-1.14-1.09-1.53-1.52a6.25,6.25,0,0,1-1-1.54h0l1.86-1.08a6.58,6.58,0,0,0,1,1.53,20,20,0,0,0,1.53,1.52Z" fill="#e8e8f9"/><polygon points="231.26 117.55 233.13 116.47 235.32 117.73 233.46 118.82 231.26 117.55" fill="#20d8e5"/><path d="M242,129.68a.74.74,0,0,1-.31.71l-1.86,1.08a.77.77,0,0,0,.31-.71,2,2,0,0,0-.27-1,4.22,4.22,0,0,0-.66-.88l-.49-.49,1.87-1.08q.28.27.48.48a4.61,4.61,0,0,1,.67.89A2,2,0,0,1,242,129.68Z" fill="#e8e8f9"/><path d="M237,121.8a4.26,4.26,0,0,0,.41,1.93l-1.86,1.08a4.37,4.37,0,0,1-.42-1.93,2.13,2.13,0,0,1,.44-1.47,1.07,1.07,0,0,1,.31-.25l1.86-1.09a1.48,1.48,0,0,0-.31.25A2.16,2.16,0,0,0,237,121.8Z" fill="#e8e8f9"/><path d="M237.47,123.23l1.87-1.09c-.2.12-.29.37-.29.75a1.8,1.8,0,0,0,.25.9l-1.86,1.08a1.76,1.76,0,0,1-.26-.89C237.18,123.59,237.28,123.34,237.47,123.23Z" fill="#20d8e5"/><path d="M243.23,132.47l-1.87,1.08a1.26,1.26,0,0,0,.39-.34,2.29,2.29,0,0,0,.4-1.43,4.5,4.5,0,0,0-.42-1.93,6.86,6.86,0,0,0-1-1.55c-.4-.44-.92-1-1.55-1.53-.46-.43-.82-.78-1.07-1a4.21,4.21,0,0,1-.64-.85l1.86-1.08a4.56,4.56,0,0,0,.64.84q.39.42,1.08,1.05a20.18,20.18,0,0,1,1.54,1.54,6.34,6.34,0,0,1,1,1.55,4.33,4.33,0,0,1,.43,1.93,2.38,2.38,0,0,1-.41,1.43A1.37,1.37,0,0,1,243.23,132.47Z" fill="#20d8e5"/><path d="M240.31,122.31a3.06,3.06,0,0,1,1,1l-1.86,1.08a3.09,3.09,0,0,0-1.05-1,1.08,1.08,0,0,0-.91-.19l-.06,0,1.87-1.09,0,0A1.11,1.11,0,0,1,240.31,122.31Z" fill="#e8e8f9"/><path d="M241.35,123.29a2.34,2.34,0,0,1,.43,1.2l-1.87,1.08a2.42,2.42,0,0,0-.42-1.2Z" fill="#e8e8f9"/><path d="M235.9,121.16l1.86-1.09a1.55,1.55,0,0,1,.91-.17,4.25,4.25,0,0,1,1.78.63l-1.87,1.08a4.35,4.35,0,0,0-1.78-.63A1.45,1.45,0,0,0,235.9,121.16Z" fill="#20d8e5"/><polygon points="239.91 125.57 241.78 124.49 243.92 125.73 242.06 126.81 239.91 125.57" fill="#e8e8f9"/><path d="M238.58,121.61l1.87-1.08a7.43,7.43,0,0,1,2.44,2.25,5.83,5.83,0,0,1,1,3l-1.86,1.08a5.88,5.88,0,0,0-1-3A7.43,7.43,0,0,0,238.58,121.61Z" fill="#20d8e5"/><path d="M203.93,92.17,250,118.77,249.92,150c0,1.17-.84,1.65-1.86,1.06l-42.37-24.47a4.07,4.07,0,0,1-1.85-3.19ZM233.43,130l0-11.16-2.19-1.27-3.12,6.52L225.09,114l-2.22-1.28,0,11.16,1.95,1.13,0-7.26,2.6,8.77,1.47.85,2.62-5.75,0,7.25,2,1.13m-19.37-14.84a6.37,6.37,0,0,1-.37-2.16,3.48,3.48,0,0,1,.38-1.74,1.32,1.32,0,0,1,1-.69,2.49,2.49,0,0,1,1.51.42,4.84,4.84,0,0,1,1.4,1.2,5.54,5.54,0,0,1,.94,1.75l2.24,1.29a10.32,10.32,0,0,0-1.7-3.65,9.46,9.46,0,0,0-2.85-2.6,4.5,4.5,0,0,0-2.52-.73,2.29,2.29,0,0,0-1.77,1,4.49,4.49,0,0,0-.66,2.58,9.14,9.14,0,0,0,.64,3.32,11.44,11.44,0,0,0,1.76,3,9.27,9.27,0,0,0,2.51,2.17,4.17,4.17,0,0,0,2.87.7,2.27,2.27,0,0,0,1.71-1.68l-2.24-1.29a1.18,1.18,0,0,1-.94.67,2.48,2.48,0,0,1-1.41-.41,5.19,5.19,0,0,1-1.5-1.32,6.19,6.19,0,0,1-1-1.89m27.69,18.07a2.29,2.29,0,0,0,.4-1.43,4.5,4.5,0,0,0-.42-1.93,6.86,6.86,0,0,0-1-1.55c-.4-.44-.92-1-1.55-1.53-.46-.43-.82-.78-1.07-1a4.21,4.21,0,0,1-.64-.85,1.76,1.76,0,0,1-.26-.89c0-.43.12-.69.35-.78a1.08,1.08,0,0,1,.91.19,3.09,3.09,0,0,1,1.05,1,2.42,2.42,0,0,1,.42,1.2l2.15,1.24a5.88,5.88,0,0,0-1-3,7.43,7.43,0,0,0-2.44-2.25,4.35,4.35,0,0,0-1.78-.63,1.39,1.39,0,0,0-1.21.43,2.13,2.13,0,0,0-.44,1.47,4.37,4.37,0,0,0,.42,1.93,6.25,6.25,0,0,0,1,1.54c.39.43.9.94,1.53,1.52.47.42.83.76,1.09,1a4.22,4.22,0,0,1,.66.88,2,2,0,0,1,.27,1c0,.41-.14.66-.4.76a1.29,1.29,0,0,1-1.07-.25,2.81,2.81,0,0,1-1-1,2.7,2.7,0,0,1-.42-1.33l-2.09-1.21a5,5,0,0,0,.48,2.06,7.17,7.17,0,0,0,1.28,1.89,8.22,8.22,0,0,0,1.83,1.46,3.8,3.8,0,0,0,1.86.61,1.4,1.4,0,0,0,1.19-.54" fill="#f5f5ff"/><polygon points="233.46 118.82 233.43 129.98 231.48 128.85 231.5 121.6 228.88 127.35 227.41 126.5 224.81 117.73 224.79 124.99 222.84 123.86 222.87 112.7 225.09 113.98 228.15 124.07 231.26 117.55 233.46 118.82" fill="#20d8e5"/><path d="M238.58,121.61a7.43,7.43,0,0,1,2.44,2.25,5.88,5.88,0,0,1,1,3l-2.15-1.24a2.42,2.42,0,0,0-.42-1.2,3.09,3.09,0,0,0-1.05-1,1.08,1.08,0,0,0-.91-.19c-.23.09-.35.35-.35.78a1.76,1.76,0,0,0,.26.89,4.21,4.21,0,0,0,.64.85c.25.27.61.62,1.07,1,.63.58,1.15,1.09,1.55,1.53a6.86,6.86,0,0,1,1,1.55,4.5,4.5,0,0,1,.42,1.93,2.29,2.29,0,0,1-.4,1.43,1.4,1.4,0,0,1-1.19.54,3.8,3.8,0,0,1-1.86-.61,8.22,8.22,0,0,1-1.83-1.46,7.17,7.17,0,0,1-1.28-1.89,5,5,0,0,1-.48-2.06l2.09,1.21a2.7,2.7,0,0,0,.42,1.33,2.81,2.81,0,0,0,1,1,1.29,1.29,0,0,0,1.07.25c.26-.1.39-.35.4-.76a2,2,0,0,0-.27-1,4.22,4.22,0,0,0-.66-.88c-.26-.28-.62-.62-1.09-1-.63-.58-1.14-1.09-1.53-1.52a6.25,6.25,0,0,1-1-1.54,4.37,4.37,0,0,1-.42-1.93,2.13,2.13,0,0,1,.44-1.47,1.39,1.39,0,0,1,1.21-.43A4.35,4.35,0,0,1,238.58,121.61Z" fill="#20d8e5"/><polygon points="203.93 92.17 205.8 91.09 251.87 117.69 250.01 118.78 203.93 92.17" fill="#e8e8f9"/><polygon points="250.01 118.78 251.87 117.69 251.78 148.87 249.92 149.95 250.01 118.78" fill="#a6a1e2"/></g><g style="isolation:isolate"><path d="M204.93,87.79l1.86-1.09a2.42,2.42,0,0,1,2.44.24L207.37,88A2.43,2.43,0,0,0,204.93,87.79Z" fill="#6a58db"/><path d="M243.35,109.87a1.23,1.23,0,0,0,.56,1L242,111.92a1.25,1.25,0,0,1-.56-1Z" fill="#8578ed"/><path d="M243.51,109.51a.39.39,0,0,0-.16.36L241.48,111a.39.39,0,0,1,.16-.35Z" fill="#8578ed"/><path d="M243.91,110.83a.38.38,0,0,0,.39,0L242.43,112a.4.4,0,0,1-.39,0Z" fill="#8578ed"/><path d="M241.64,110.6l1.87-1.09a.4.4,0,0,1,.4,0l-1.86,1.09A.39.39,0,0,0,241.64,110.6Z" fill="#fff"/><path d="M244.3,110.87,242.43,112a.39.39,0,0,0,.17-.36,1.21,1.21,0,0,0-.55-1l1.86-1.09a1.22,1.22,0,0,1,.55,1A.39.39,0,0,1,244.3,110.87Z" fill="#fff"/><path d="M242.05,110.64a1.21,1.21,0,0,1,.55,1c0,.35-.25.5-.56.33a1.25,1.25,0,0,1-.56-1C241.48,110.59,241.74,110.46,242.05,110.64Z" fill="#fff"/><path d="M246,111.39a1.22,1.22,0,0,0,.55,1l-1.86,1.09a1.25,1.25,0,0,1-.56-1Z" fill="#8578ed"/><path d="M246.54,112.35a.4.4,0,0,0,.4,0l-1.87,1.09a.4.4,0,0,1-.39,0Z" fill="#8578ed"/><path d="M246.15,111a.39.39,0,0,0-.16.36l-1.87,1.08a.37.37,0,0,1,.16-.35Z" fill="#8578ed"/><path d="M244.28,112.12l1.87-1.09a.4.4,0,0,1,.4,0l-1.87,1.09A.39.39,0,0,0,244.28,112.12Z" fill="#fff"/><path d="M246.94,112.39l-1.87,1.09a.41.41,0,0,0,.17-.36,1.2,1.2,0,0,0-.56-1l1.87-1.09a1.22,1.22,0,0,1,.55,1A.39.39,0,0,1,246.94,112.39Z" fill="#fff"/><path d="M244.68,112.16a1.2,1.2,0,0,1,.56,1c0,.35-.25.5-.56.32a1.25,1.25,0,0,1-.56-1C244.12,112.12,244.37,112,244.68,112.16Z" fill="#fff"/><path d="M248.55,112.87a1.25,1.25,0,0,0,.56,1l-1.87,1.08a1.25,1.25,0,0,1-.55-1Z" fill="#8578ed"/><path d="M248.72,112.51a.41.41,0,0,0-.17.36L246.69,114a.39.39,0,0,1,.16-.36Z" fill="#8578ed"/><path d="M249.11,113.84a.4.4,0,0,0,.39,0L247.64,115a.42.42,0,0,1-.4,0Z" fill="#8578ed"/><path d="M246.85,113.6l1.87-1.09a.4.4,0,0,1,.39,0l-1.86,1.09A.4.4,0,0,0,246.85,113.6Z" fill="#fff"/><path d="M249.5,113.87,247.64,115a.4.4,0,0,0,.16-.36,1.22,1.22,0,0,0-.55-1l1.86-1.09a1.23,1.23,0,0,1,.56,1A.39.39,0,0,1,249.5,113.87Z" fill="#fff"/><path d="M247.25,113.64a1.22,1.22,0,0,1,.55,1c0,.35-.25.49-.56.32a1.25,1.25,0,0,1-.55-1C246.69,113.6,246.94,113.46,247.25,113.64Z" fill="#fff"/><polygon points="250.01 116.57 251.88 115.49 251.87 117.69 250.01 118.78 250.01 116.57" fill="#6a58db"/><polygon points="207.37 88.03 209.23 86.94 248.48 109.6 246.61 110.69 207.37 88.03" fill="#6a58db"/><path d="M246.61,110.69a7.47,7.47,0,0,1,3.4,5.88v2.2l-46.08-26.6V90c0-2.16,1.53-3,3.43-1.94Zm-1.93,2.75c.31.18.56,0,.56-.32a1.2,1.2,0,0,0-.56-1c-.31-.18-.56,0-.56.31a1.25,1.25,0,0,0,.56,1m2.56,1.48c.31.17.56,0,.56-.32a1.22,1.22,0,0,0-.55-1c-.31-.18-.56,0-.56.32a1.25,1.25,0,0,0,.55,1m-5.2-3c.31.17.56,0,.56-.33a1.21,1.21,0,0,0-.55-1c-.31-.18-.57,0-.57.31a1.25,1.25,0,0,0,.56,1" fill="#8578ed"/><path d="M246.61,110.69l1.87-1.09a7.53,7.53,0,0,1,3.4,5.89L250,116.57A7.47,7.47,0,0,0,246.61,110.69Z" fill="#6a58db"/></g><g style="isolation:isolate"><polygon points="68.52 17.62 70.81 16.29 70.8 17.81 68.51 19.14 68.52 17.62" fill="#ff9069"/><polygon points="76.1 25.34 78.39 24.01 78.39 25.84 76.1 27.17 76.1 25.34" fill="#fff"/><polygon points="68.51 19.14 70.8 17.81 78.39 25.84 76.1 27.17 68.51 19.14" fill="#ff9069"/><polygon points="77.2 29.84 79.49 28.51 81.07 29.43 78.78 30.75 77.2 29.84" fill="#ff9069"/><polygon points="70.52 19.53 72.81 18.2 78.39 24.01 76.1 25.34 70.52 19.53" fill="#fff"/><polygon points="70.52 19.53 72.81 18.2 78.4 18.86 76.12 20.19 70.52 19.53" fill="#ff9069"/><polygon points="68.52 17.62 70.81 16.29 78.41 17.02 76.12 18.35 68.52 17.62" fill="#fff"/><polygon points="76.12 18.35 78.41 17.02 78.4 18.86 76.12 20.19 76.12 18.35" fill="#fff"/><polygon points="84.97 30.46 87.26 29.13 87.26 30.97 84.97 32.3 84.97 30.46" fill="#ff9069"/><polygon points="82.32 19.74 84.61 18.41 79.49 28.51 77.2 29.84 82.32 19.74" fill="#ff9069"/><polygon points="84.99 23.48 87.28 22.14 87.28 23.98 84.99 25.31 84.99 23.48" fill="#ff9069"/><polygon points="82.32 19.74 84.61 18.41 86.2 19.33 83.91 20.66 82.32 19.74" fill="#fff"/><polygon points="83.91 20.66 86.2 19.33 81.07 29.43 78.78 30.75 83.91 20.66" fill="#fff"/><polygon points="83.91 20.66 78.78 30.75 77.2 29.84 82.32 19.74 83.91 20.66" fill="#fff"/><polygon points="84.97 30.46 87.26 29.13 92.86 29.79 90.57 31.12 84.97 30.46" fill="#fff"/><polygon points="84.99 25.31 87.28 23.98 92.86 29.79 90.57 31.12 84.99 25.31" fill="#ff9069"/><polygon points="84.97 32.3 87.26 30.97 94.87 31.7 92.58 33.03 84.97 32.3" fill="#ff9069"/><polygon points="84.99 23.48 92.58 31.51 92.58 33.03 84.97 32.3 84.97 30.46 90.57 31.12 84.99 25.31 84.99 23.48" fill="#fff"/><polygon points="92.58 31.51 94.87 30.18 94.87 31.7 92.58 33.03 92.58 31.51" fill="#fff"/><polygon points="84.99 23.48 87.28 22.14 94.87 30.18 92.58 31.51 84.99 23.48" fill="#fff"/><path d="M93.82,17.27a10.6,10.6,0,0,1,4.82,8.34l-.06,20.13c0,3.06-2.18,4.31-4.85,2.76L67.27,33.23a10.65,10.65,0,0,1-4.82-8.35l.06-20.13c0-3.06,2.19-4.3,4.85-2.76Zm-15,13.48,5.12-10.09-1.59-.92L77.2,29.84l1.59.91M92.58,33V31.51l-7.6-8v1.84l5.58,5.81L85,30.46V32.3l7.61.73M76.12,20.19V18.35l-7.6-.73v1.52l7.59,8V25.34l-5.58-5.81,5.6.66" fill="#ff9069"/><polygon points="76.12 18.35 76.12 20.19 70.52 19.53 76.1 25.34 76.1 27.17 68.51 19.14 68.52 17.62 76.12 18.35" fill="#fff"/><path d="M63.92,1.66,66.21.33a3.42,3.42,0,0,1,3.44.33L67.36,2A3.42,3.42,0,0,0,63.92,1.66Z" fill="#ef7352"/><path d="M99.46,47.51l-2.29,1.33a3.37,3.37,0,0,0,1.41-3.1l2.29-1.33A3.39,3.39,0,0,1,99.46,47.51Z" fill="#ef7352"/><polygon points="98.64 25.61 100.93 24.28 100.87 44.41 98.58 45.74 98.64 25.61" fill="#ef7352"/><polygon points="67.36 1.99 69.65 0.66 96.11 15.94 93.82 17.27 67.36 1.99" fill="#ef7352"/><path d="M93.82,17.27l2.28-1.33a10.61,10.61,0,0,1,4.83,8.34l-2.29,1.33A10.6,10.6,0,0,0,93.82,17.27Z" fill="#ef7352"/></g><g style="isolation:isolate"><polygon points="158.5 38.1 160.89 36.72 160.88 38.3 158.5 39.69 158.5 38.1" fill="#ed4d6d"/><polygon points="166.41 46.15 168.79 44.76 168.79 46.67 166.4 48.06 166.41 46.15" fill="#fff"/><polygon points="158.5 39.69 160.88 38.3 168.79 46.67 166.4 48.06 158.5 39.69" fill="#ed4d6d"/><polygon points="167.56 50.84 169.94 49.45 171.59 50.4 169.2 51.79 167.56 50.84" fill="#ed4d6d"/><polygon points="160.59 40.09 162.97 38.71 168.79 44.76 166.41 46.15 160.59 40.09" fill="#fff"/><polygon points="160.59 40.09 162.97 38.71 168.81 39.39 166.42 40.78 160.59 40.09" fill="#ed4d6d"/><polygon points="158.5 38.1 160.89 36.72 168.81 37.48 166.43 38.87 158.5 38.1" fill="#fff"/><polygon points="166.43 38.87 168.81 37.48 168.81 39.39 166.42 40.78 166.43 38.87" fill="#fff"/><polygon points="175.65 51.48 178.04 50.1 178.03 52.01 175.65 53.4 175.65 51.48" fill="#ed4d6d"/><polygon points="172.89 40.31 175.27 38.93 169.94 49.45 167.56 50.84 172.89 40.31" fill="#ed4d6d"/><polygon points="175.67 44.2 178.06 42.82 178.05 44.73 175.67 46.11 175.67 44.2" fill="#ed4d6d"/><polygon points="172.89 40.31 175.27 38.93 176.93 39.88 174.54 41.27 172.89 40.31" fill="#fff"/><polygon points="174.54 41.27 176.93 39.88 171.59 50.4 169.2 51.79 174.54 41.27" fill="#fff"/><polygon points="174.54 41.27 169.2 51.79 167.56 50.84 172.89 40.31 174.54 41.27" fill="#ed4d6d"/><polygon points="175.65 51.48 178.04 50.1 183.87 50.78 181.49 52.17 175.65 51.48" fill="#fff"/><polygon points="175.67 46.11 178.05 44.73 183.87 50.78 181.49 52.17 175.67 46.11" fill="#ed4d6d"/><polygon points="175.65 53.4 178.03 52.01 185.96 52.78 183.58 54.16 175.65 53.4" fill="#ed4d6d"/><polygon points="183.58 52.57 185.97 51.19 185.96 52.78 183.58 54.16 183.58 52.57" fill="#fff"/><polygon points="175.67 44.2 178.06 42.82 185.97 51.19 183.58 52.57 175.67 44.2" fill="#fff"/><path d="M184.87,37.73,157.3,21.82c-2.78-1.61-5.05-.32-5.05,2.87l-.06,21a11.09,11.09,0,0,0,5,8.7l27.56,15.91c2.79,1.61,5,.31,5.06-2.88l.06-21A11.07,11.07,0,0,0,184.87,37.73Zm-18.45,3.05-5.83-.69,5.82,6.06v1.91l-7.9-8.37V38.1l7.93.76Zm2.78,11-1.64-.95,5.33-10.53,1.65,1Zm6.45-.31,5.84.69h0l-5.84-.69v1.91h0Zm7.93,1.09-7.91-8.37v0l7.91,8.37Z" fill="#ed4d6d"/><polygon points="166.43 38.87 166.42 40.78 160.59 40.09 166.41 46.15 166.4 48.06 158.5 39.69 158.5 38.1 166.43 38.87" fill="#ed4d6d"/><path d="M153.71,21.47l2.39-1.39a3.59,3.59,0,0,1,3.59.35l-2.39,1.39A3.56,3.56,0,0,0,153.71,21.47Z" fill="#d3355b"/><path d="M190.74,69.25l-2.38,1.38a3.52,3.52,0,0,0,1.47-3.23L192.21,66A3.52,3.52,0,0,1,190.74,69.25Z" fill="#d3355b"/><polygon points="189.89 46.43 192.27 45.04 192.21 66.02 189.83 67.4 189.89 46.43" fill="#d3355b"/><polygon points="157.3 21.82 159.69 20.43 187.25 36.35 184.87 37.73 157.3 21.82" fill="#d3355b"/><path d="M184.87,37.73l2.38-1.38a11,11,0,0,1,5,8.69l-2.38,1.39A11.07,11.07,0,0,0,184.87,37.73Z" fill="#d3355b"/></g><path d="M171.07,36.18c4.74,2.74,8.57,9.38,8.56,14.82s-3.88,7.66-8.62,4.92-8.58-9.38-8.56-14.83S166.32,33.44,171.07,36.18ZM175,49c.5,0,.51-.82,0-1.41l-6.2-7.16a1.39,1.39,0,0,0-.3-.26c-.37-.21-.7-.07-.7.39l0,7.14a1.54,1.54,0,0,0,.69,1.19.61.61,0,0,0,.31.09L175,49" fill="#fff"/><g opacity="0.2" style="mix-blend-mode:multiply"><path d="M103.85,152.58c4.6,2.65,4.63,7,.06,9.61L46.16,195.13c-4.57,2.65-12,2.65-16.61,0L4.13,180.45c-4.6-2.66-4.62-7,0-9.62L61.83,137.9c4.57-2.65,12-2.66,16.6,0Z" fill="#cccce2"/></g><g style="isolation:isolate"><path d="M75.46,163.91l0,10.78c0,1.76-1.16,3.51-3.47,4.86l0-10.78C74.3,167.42,75.45,165.67,75.46,163.91Z" fill="#ceceea"/><path d="M0,174.62l0-10.78c0,1.78,1.17,3.57,3.52,4.93l0,10.78C1.17,178.19,0,176.4,0,174.62Z" fill="#ceceea"/><polygon points="71.99 168.77 71.96 179.55 46.27 194.47 46.3 183.7 71.99 168.77" fill="#ceceea"/><polygon points="29.41 183.7 29.38 194.47 3.52 179.55 3.56 168.77 29.41 183.7" fill="#ceceea"/><path d="M46.3,183.7l0,10.78c-4.65,2.7-12.21,2.7-16.89,0l0-10.78C34.09,186.4,41.65,186.4,46.3,183.7Z" fill="#ceceea"/><path d="M71.93,159c4.68,2.71,4.71,7.09.06,9.79L46.3,183.7c-4.65,2.7-12.21,2.7-16.89,0L3.55,168.77c-4.67-2.7-4.7-7.08,0-9.78l25.69-14.93c4.65-2.7,12.21-2.7,16.89,0Z" fill="#e8e8f9"/><path d="M71.42,158.5c4.6,2.66,4.63,7,0,9.64l-25.3,14.7c-4.58,2.66-12,2.66-16.63,0L4.07,168.14c-4.61-2.66-4.63-7-.05-9.64l25.3-14.7c4.58-2.66,12-2.66,16.63,0Z" fill="#a6a1e2"/></g><g style="isolation:isolate"><path d="M72.48,158.77l0,3.08c0,1.62-1.07,3.23-3.19,4.47l0-3.08C71.41,162,72.48,160.39,72.48,158.77Z" fill="#20d8e5"/><path d="M3,161.78l0-3.08c0,1.65,1.07,3.29,3.24,4.54l0,3.08C4.06,165.07,3,163.42,3,161.78Z" fill="#20d8e5"/><polygon points="69.29 163.24 69.26 166.32 45.59 180.07 45.62 176.99 69.29 163.24" fill="#20d8e5"/><polygon points="30.07 176.99 30.04 180.07 6.22 166.32 6.25 163.24 30.07 176.99" fill="#20d8e5"/><path d="M45.62,177l0,3.08c-4.28,2.49-11.25,2.49-15.56,0l0-3.08C34.38,179.48,41.34,179.48,45.62,177Z" fill="#20d8e5"/><path d="M69.24,154.23c4.3,2.49,4.33,6.52.05,9L45.62,177c-4.28,2.49-11.24,2.49-15.55,0L6.25,163.24c-4.31-2.49-4.33-6.52,0-9l23.66-13.75c4.28-2.49,11.25-2.49,15.56,0Z" fill="#1ab0c4"/></g><g style="isolation:isolate"><path d="M75.46,146.42l0,10.78c0,1.76-1.16,3.51-3.47,4.85l0-10.78C74.3,149.93,75.45,148.18,75.46,146.42Z" fill="#ceceea"/><path d="M0,157.13l0-10.78c0,1.78,1.17,3.57,3.52,4.92l0,10.78C1.17,160.7,0,158.91,0,157.13Z" fill="#ceceea"/><polygon points="71.99 151.27 71.96 162.05 46.27 176.98 46.3 166.2 71.99 151.27" fill="#ceceea"/><polygon points="29.41 166.2 29.38 176.98 3.52 162.05 3.56 151.28 29.41 166.2" fill="#ceceea"/><path d="M46.3,166.2l0,10.78c-4.65,2.7-12.21,2.7-16.89,0l0-10.78C34.09,168.9,41.65,168.9,46.3,166.2Z" fill="#ceceea"/><path d="M71.93,141.49c4.68,2.7,4.71,7.08.06,9.78L46.3,166.2c-4.65,2.7-12.21,2.7-16.89,0L3.55,151.27c-4.67-2.7-4.7-7.08,0-9.78l25.69-14.93c4.65-2.7,12.21-2.7,16.89,0Z" fill="#e8e8f9"/><path d="M71.43,141.13c4.61,2.67,4.63,7,0,9.64L46.17,165.48c-4.57,2.66-12,2.66-16.63,0L4.06,150.77c-4.61-2.66-4.63-7,0-9.64l25.31-14.7c4.57-2.66,12-2.66,16.63,0Z" fill="#a6a1e2"/></g><g style="isolation:isolate"><path d="M72.48,141.27l0,3.08c0,1.62-1.07,3.24-3.19,4.48l0-3.08C71.41,144.51,72.48,142.89,72.48,141.27Z" fill="#20d8e5"/><path d="M3,144.29l0-3.08c0,1.64,1.07,3.29,3.24,4.54l0,3.08C4.06,147.58,3,145.93,3,144.29Z" fill="#20d8e5"/><polygon points="69.29 145.75 69.26 148.83 45.59 162.58 45.62 159.5 69.29 145.75" fill="#20d8e5"/><polygon points="30.07 159.5 30.04 162.58 6.22 148.83 6.25 145.75 30.07 159.5" fill="#20d8e5"/><path d="M45.62,159.5l0,3.08c-4.28,2.49-11.25,2.49-15.56,0l0-3.08C34.38,162,41.34,162,45.62,159.5Z" fill="#20d8e5"/><path d="M69.24,136.74c4.3,2.49,4.33,6.52.05,9L45.62,159.5c-4.28,2.49-11.24,2.49-15.55,0L6.25,145.75c-4.31-2.49-4.33-6.52,0-9L29.86,123c4.28-2.49,11.25-2.49,15.56,0Z" fill="#1ab0c4"/></g><g style="isolation:isolate"><path d="M75.46,128.77l0,10.78c0,1.76-1.16,3.52-3.47,4.86l0-10.78C74.3,132.29,75.45,130.53,75.46,128.77Z" fill="#ceceea"/><path d="M0,139.49l0-10.78c0,1.78,1.17,3.56,3.52,4.92l0,10.78C1.17,143.05,0,141.27,0,139.49Z" fill="#ceceea"/><polygon points="71.99 133.63 71.96 144.41 46.27 159.34 46.3 148.56 71.99 133.63" fill="#ceceea"/><polygon points="29.41 148.56 29.38 159.34 3.52 144.41 3.56 133.63 29.41 148.56" fill="#ceceea"/><path d="M46.3,148.56l0,10.78c-4.65,2.7-12.21,2.7-16.89,0l0-10.78C34.09,151.26,41.65,151.26,46.3,148.56Z" fill="#ceceea"/><path d="M71.93,123.85c4.68,2.7,4.71,7.08.06,9.78L46.3,148.56c-4.65,2.7-12.21,2.7-16.89,0L3.55,133.63c-4.67-2.7-4.7-7.08,0-9.78l25.69-14.93c4.65-2.7,12.21-2.7,16.89,0Z" fill="#f8f8ff"/><path d="M71.36,123.43c4.6,2.66,4.62,7,0,9.62L46.16,147.73c-4.57,2.65-12,2.65-16.61,0L4.13,133.05c-4.6-2.65-4.62-7,0-9.62l25.25-14.67c4.57-2.66,12-2.66,16.61,0Z" fill="#e8e8f9"/></g><g style="isolation:isolate"><path d="M58.27,125.22v2.92c0,3-2,6-6,8.34-8,4.65-21,4.65-29,0-4.05-2.33-6.07-5.4-6.06-8.46V125.1c0,3.06,2,6.13,6.06,8.46,8,4.65,21,4.65,29,0C56.27,131.26,58.26,128.24,58.27,125.22Z" fill="#ceceea"/><path d="M52.21,116.75c8,4.65,8.08,12.17.1,16.81s-21,4.65-29,0-8.09-12.16-.1-16.81S44.18,112.11,52.21,116.75Z" fill="#e8e8f9"/></g><path d="M55.08,126.3c-.42,2.2-2.08,4.32-5,6-6.79,3.94-17.83,3.94-24.66,0-2.93-1.69-4.61-3.84-5-6-.56-2.94,1.09-6,5-8.24,6.79-4,17.83-4,24.66,0C54,120.29,55.64,123.35,55.08,126.3Z" fill="#ceceea"/><path d="M55.08,126.3c-.42,2.2-2.08,4.32-5,6-6.79,3.94-17.83,3.94-24.66,0-2.93-1.69-4.61-3.84-5-6,.41-2.2,2.07-4.33,5-6,6.79-3.94,17.83-3.94,24.66,0C53,121.94,54.65,124.09,55.08,126.3Z" fill="#a6a1e2"/><path d="M59,48.4c-11.82-6.83-30.93-6.83-42.68,0-6.7,3.89-9.56,9.18-8.59,14.26a.09.09,0,0,1,0,.05v0s0,0,0,0v0a.06.06,0,0,1,0,0v0a.43.43,0,0,0,0,0v0l0,.05v0a.43.43,0,0,1,0,.05v0s0,0,0,.05v0s0,0,0,0v0a.11.11,0,0,0,0,0v0a.43.43,0,0,0,0,0v0a.09.09,0,0,0,0,0v0a.43.43,0,0,1,0,.05v0a.06.06,0,0,0,0,0v0s0,0,0,.05v0a.09.09,0,0,0,0,0v0a.06.06,0,0,1,0,0v0a.43.43,0,0,0,0,0v0a.09.09,0,0,1,0,0v0a.43.43,0,0,1,0,0v0a.11.11,0,0,1,0,0v0s0,0,0,0v0s0,0,0,0v0a.43.43,0,0,0,0,.05v0l0,0v0a.43.43,0,0,1,0,0v0a.07.07,0,0,0,0,0v0s0,0,0,0v0a.11.11,0,0,0,0,.05v0s0,0,0,0v0a.09.09,0,0,0,0,0v0a.09.09,0,0,1,0,0v0a.43.43,0,0,1,0,0v0a.11.11,0,0,1,0,0v0s0,0,0,0v0a.07.07,0,0,1,0,0v0a.43.43,0,0,0,0,.05v0l0,0v0a.43.43,0,0,1,0,0v0s0,0,0,0v0s0,0,0,0v0a.11.11,0,0,0,0,.05v0s0,0,0,0v0a.09.09,0,0,0,0,0v0a.43.43,0,0,1,0,0v0a.06.06,0,0,0,0,0v0a.11.11,0,0,1,0,0v0a0,0,0,0,0,0,0v0s0,0,0,0v0a.06.06,0,0,0,0,0v0a0,0,0,0,1,0,0,.09.09,0,0,1,0,.05s0,0,0,0v0a.08.08,0,0,1,0,0,.06.06,0,0,1,0,0s0,0,0,0v0a0,0,0,0,1,0,0,.08.08,0,0,1,0,0s0,0,0,0a.06.06,0,0,0,0,0v0s0,0,0,0,0,0,0,0a.09.09,0,0,0,0,0v0a.06.06,0,0,1,0,0s0,0,0,0a.08.08,0,0,0,0,0,0,0,0,0,0,0,0v0s0,0,0,0a513785625496.8,513785625496.8,0,0,1,0,.08v.07a.09.09,0,0,0,0,.05,0,0,0,0,0,0,0v0a.08.08,0,0,1,0,0v0s0,0,0,0v0a0,0,0,0,1,0,0,.08.08,0,0,1,0,0s0,0,0,0v0s0,0,0,0,0,0,0,0,0,0,0,0v0a0,0,0,0,1,0,0,.06.06,0,0,1,0,0v0a.08.08,0,0,0,0,0v0a.09.09,0,0,1,0,0s0,0,0,0a513785625496.83,513785625496.83,0,0,1,0,.08v.07a.09.09,0,0,0,0,.05,0,0,0,0,0,0,0v0s0,0,0,0a.06.06,0,0,0,0,0,0,0,0,0,0,0,0v0a0,0,0,0,1,0,0s0,0,0,0,0,0,0,0v0s0,0,0,0,0,0,0,0,0,0,0,0v0a.08.08,0,0,1,0,0,.06.06,0,0,1,0,0s0,0,0,0v0a0,0,0,0,1,0,0,.09.09,0,0,1,0,0s0,0,0,0a.06.06,0,0,0,0,0v0a.06.06,0,0,1,0,0v0a.09.09,0,0,0,0,.05,0,0,0,0,0,0,0v0s0,0,0,0a.06.06,0,0,0,0,0,0,0,0,0,0,0,0v0s0,0,0,0,0,0,0,0,0,0,0,0v0s0,0,0,0,0,0,0,0a0,0,0,0,0,0,0v0a.08.08,0,0,1,0,0,.06.06,0,0,1,0,0s0,0,0,0v0a0,0,0,0,1,0,0,.09.09,0,0,1,0,0s0,0,0,0v0a.06.06,0,0,1,0,0s0,0,0,0v0a.09.09,0,0,0,0,.05v0a.06.06,0,0,1,0,0s0,0,0,0a.06.06,0,0,0,0,0,0,0,0,0,0,0,0v0s0,0,0,0,0,0,0,0a.06.06,0,0,0,0,0v0s0,0,0,0a.09.09,0,0,0,0,0,0,0,0,0,0,0,0v0s0,0,0,0,0,0,0,0a.08.08,0,0,0,0,0v0a0,0,0,0,1,0,0s0,0,0,0,0,0,0,0v0s0,0,0,0,0,0,0,0v.08a0,0,0,0,1,0,0,.06.06,0,0,1,0,0s0,0,0,0a.06.06,0,0,0,0,0v0a.09.09,0,0,1,0,0s0,0,0,0a.06.06,0,0,0,0,0v0a.06.06,0,0,1,0,0s0,0,0,0a.09.09,0,0,0,0,0,0,0,0,0,0,0,0v0s0,0,0,0a.06.06,0,0,0,0,0,.08.08,0,0,0,0,0v0s0,0,0,0,0,0,0,0,0,0,0,0v0s0,0,0,0,0,0,0,0v.08a0,0,0,0,1,0,0,.06.06,0,0,1,0,0s0,0,0,0v0a0,0,0,0,1,0,0,.09.09,0,0,1,0,0s0,0,0,0v0a513785625496.71,513785625496.71,0,0,1,0,.08s0,0,0,0a.09.09,0,0,0,0,0v0a.08.08,0,0,1,0,0s0,0,0,0a.06.06,0,0,0,0,0,0,0,0,0,0,0,0v0s0,0,0,0,0,0,0,0,0,0,0,0v0s0,0,0,0a.08.08,0,0,0,0,0,0,0,0,0,0,0,0v0s0,0,0,0,0,0,0,0a.08.08,0,0,0,0,0v0a0,0,0,0,1,0,0,.09.09,0,0,1,0,0s0,0,0,0v0a513785625496.74,513785625496.74,0,0,1,0,.08s0,0,0,0v0a0,0,0,0,1,0,0,.06.06,0,0,1,0,0s0,0,0,0a.06.06,0,0,0,0,0v0a.09.09,0,0,1,0,0s0,0,0,0,0,0,0,0,0,0,0,0v0s0,0,0,0a.08.08,0,0,0,0,0,0,0,0,0,0,0,0v0s0,0,0,0a.06.06,0,0,0,0,0,.08.08,0,0,0,0,0v0s0,0,0,0,0,0,0,0a0,0,0,0,0,0,0v0s0,0,0,0,0,0,0,0,0,0,0,0v0a0,0,0,0,1,0,0,.06.06,0,0,1,0,0s0,0,0,0v0a0,0,0,0,1,0,0,.09.09,0,0,1,0,0s0,0,0,0,0,0,0,0v0a.06.06,0,0,1,0,0s0,0,0,0a.09.09,0,0,0,0,.05v0a.08.08,0,0,1,0,0s0,0,0,0a.06.06,0,0,0,0,0,.08.08,0,0,0,0,0v0s0,0,0,0,0,0,0,0,0,0,0,0v0s0,0,0,0a.08.08,0,0,0,0,0,0,0,0,0,0,0,0v0a0,0,0,0,1,0,0s0,0,0,0,0,0,0,0v0a0,0,0,0,1,0,0,.09.09,0,0,1,0,0s0,0,0,0v0a513785625497.49,513785625497.49,0,0,0,0,.08s0,0,0,0v.05a0,0,0,0,1,0,0,.08.08,0,0,1,0,0s0,0,0,0a.06.06,0,0,0,0,0v0s0,0,0,0,0,0,0,0,0,0,0,0,0,0,0,0v0s0,0,0,0a.08.08,0,0,0,0,0,0,0,0,0,0,0,0v0s0,0,0,0a342523750331.68,342523750331.68,0,0,0,0,.08v0a0,0,0,0,1,0,0s0,0,0,0a0,0,0,0,0,0,0v0a513785625497.63,513785625497.63,0,0,0,0,.08s0,0,0,0v.05a0,0,0,0,1,0,0,.08.08,0,0,1,0,0s0,0,0,0v0s0,0,0,0,0,0,0,0,0,0,0,0,0,0,0,0v0a.06.06,0,0,1,0,0s0,0,0,0a.08.08,0,0,0,0,0,0,0,0,0,0,0,0v0s0,0,0,0a.06.06,0,0,0,0,0,.08.08,0,0,0,0,0v0s0,0,0,0a.09.09,0,0,0,0,0,0,0,0,0,0,0,0v0s0,0,0,0v0a0,0,0,0,0,0,0v.05a0,0,0,0,1,0,0,.08.08,0,0,1,0,0s0,0,0,0v0a0,0,0,0,1,0,0,.09.09,0,0,1,0,0s0,0,0,0v0a.08.08,0,0,1,0,0,.06.06,0,0,1,0,0s0,0,0,0a.08.08,0,0,0,0,0v0a.08.08,0,0,1,0,0s0,0,0,0a.06.06,0,0,0,0,0,.08.08,0,0,0,0,0v0s0,0,0,0a.09.09,0,0,0,0,0,0,0,0,0,0,0,0v0s0,0,0,0a.06.06,0,0,0,0,0,0,0,0,0,0,0,0v.08s0,0,0,0a.06.06,0,0,0,0,0v0a0,0,0,0,1,0,0s0,0,0,0,0,0,0,0v0a.08.08,0,0,1,0,0,.06.06,0,0,1,0,0s0,0,0,0v0a0,0,0,0,1,0,0,.08.08,0,0,1,0,0s0,0,0,0v0s0,0,0,0,0,0,0,0,0,0,0,0a.09.09,0,0,0,0,0v0a.06.06,0,0,1,0,0s0,0,0,0a.08.08,0,0,0,0,0,0,0,0,0,0,0,0v.08a.06.06,0,0,0,0,0,.06.06,0,0,0,0,0v0s0,0,0,0a.09.09,0,0,0,0,0,0,0,0,0,0,0,0v0a.08.08,0,0,1,0,0s0,0,0,0,0,0,0,0v0a0,0,0,0,1,0,0,.08.08,0,0,1,0,0s0,0,0,0v0s0,0,0,0,0,0,0,0,0,0,0,0v0a.08.08,0,0,1,0,0,.06.06,0,0,1,0,0s0,0,0,0a.08.08,0,0,0,0,0v0a.09.09,0,0,1,0,.05v0a.06.06,0,0,0,0,0,.06.06,0,0,0,0,0v0s0,0,0,0a.09.09,0,0,0,0,0,0,0,0,0,0,0,0v.08a.06.06,0,0,0,0,0,0,0,0,0,0,0,0v0s0,0,0,0,0,0,0,0,0,0,0,0v0s0,0,0,0,0,0,0,0,0,0,0,0v0a.08.08,0,0,1,0,0,.06.06,0,0,1,0,0s0,0,0,0v0a0,0,0,0,1,0,0,.09.09,0,0,1,0,.05v0a.06.06,0,0,0,0,0v0s0,0,0,0,0,0,0,0a.09.09,0,0,0,0,0,0,0,0,0,0,0,0v.08a.06.06,0,0,0,0,0,0,0,0,0,0,0,0v0s0,0,0,0,0,0,0,0,0,0,0,0v.07s0,0,0,.05a0,0,0,0,0,0,0v0a.08.08,0,0,1,0,0v0s0,0,0,0v0a0,0,0,0,1,0,0,.08.08,0,0,1,0,0s0,0,0,0v0s0,0,0,0,0,0,0,0,0,0,0,0a.09.09,0,0,0,0,0v0a.06.06,0,0,1,0,0v0a.06.06,0,0,0,0,0v0a.09.09,0,0,1,0,0s0,0,0,0A513785625496.59,513785625496.59,0,0,1,12,84v.07a.09.09,0,0,0,0,.05,0,0,0,0,0,0,0v0s0,0,0,0a.06.06,0,0,0,0,0,0,0,0,0,0,0,0v0a0,0,0,0,1,0,0s0,0,0,0,0,0,0,0v0s0,0,0,0,0,0,0,0,0,0,0,0v0a0,0,0,0,1,0,0,.06.06,0,0,1,0,0v.08a0,0,0,0,1,0,0,.09.09,0,0,1,0,0s0,0,0,0a.06.06,0,0,0,0,0v0a.06.06,0,0,1,0,0v0a.09.09,0,0,0,0,.05,0,0,0,0,0,0,0v0s0,0,0,0a.06.06,0,0,0,0,0,0,0,0,0,0,0,0v0s0,0,0,0,0,0,0,0,0,0,0,0v0s0,0,0,0,0,0,0,0a0,0,0,0,0,0,0v0a.08.08,0,0,1,0,0,.06.06,0,0,1,0,0s0,0,0,0v0a0,0,0,0,1,0,0,.09.09,0,0,1,0,0s0,0,0,0v0a.06.06,0,0,1,0,0,.06.06,0,0,1,0,0v0a.09.09,0,0,0,0,.05v0a.06.06,0,0,1,0,0s0,0,0,0a.06.06,0,0,0,0,0,0,0,0,0,0,0,0v0s0,0,0,0,0,0,0,0,0,0,0,0v0s0,0,0,0a.09.09,0,0,0,0,0,0,0,0,0,0,0,0v0s0,0,0,0,0,0,0,0a.08.08,0,0,0,0,0v0a0,0,0,0,1,0,0,.09.09,0,0,1,0,0s0,0,0,0v0a.06.06,0,0,1,0,0,.06.06,0,0,1,0,0v.08a0,0,0,0,1,0,0,.06.06,0,0,1,0,0s0,0,0,0a.06.06,0,0,0,0,0v0a.09.09,0,0,1,0,0s0,0,0,0,0,0,0,0v0a.06.06,0,0,1,0,0s0,0,0,0a.08.08,0,0,0,0,0,0,0,0,0,0,0,0v0s0,0,0,0a.06.06,0,0,0,0,0,.08.08,0,0,0,0,0v0s0,0,0,0,0,0,0,0a0,0,0,0,0,0,0v0s0,0,0,0,0,0,0,0v.08a0,0,0,0,1,0,0,.06.06,0,0,1,0,0s0,0,0,0v0a0,0,0,0,1,0,0,.09.09,0,0,1,0,0s0,0,0,0v0a513785625496.48,513785625496.48,0,0,1,0,.08s0,0,0,0a.09.09,0,0,0,0,0v0a.08.08,0,0,1,0,0s0,0,0,0a.06.06,0,0,0,0,0,.08.08,0,0,0,0,0v0s0,0,0,0,0,0,0,0,0,0,0,0v0s0,0,0,0a.08.08,0,0,0,0,0,0,0,0,0,0,0,0v.05a0,0,0,0,1,0,0v0s0,0,0,0v0a0,0,0,0,1,0,0,.09.09,0,0,1,0,0s0,0,0,0v0a513785625496.52,513785625496.52,0,0,1,0,.08s0,0,0,0v0a0,0,0,0,1,0,0,.08.08,0,0,1,0,0s0,0,0,0a.06.06,0,0,0,0,0v0s0,0,0,0,0,0,0,0,0,0,0,0,0,0,0,0v0s0,0,0,0a.08.08,0,0,0,0,0,0,0,0,0,0,0,0v.05s0,0,0,0a.06.06,0,0,0,0,0,.08.08,0,0,0,0,0v0s0,0,0,0,0,0,0,0a0,0,0,0,0,0,0v0a1027571250993.5,1027571250993.5,0,0,1,0,.08s0,0,0,0v0a0,0,0,0,1,0,0,.08.08,0,0,1,0,0v.08a0,0,0,0,1,0,0,.09.09,0,0,1,0,0s0,0,0,0,0,0,0,0v0a.06.06,0,0,1,0,0s0,0,0,0a.08.08,0,0,0,0,0,0,0,0,0,0,0,0v0s0,0,0,0a.06.06,0,0,0,0,0,.08.08,0,0,0,0,0v0s0,0,0,0a.09.09,0,0,0,0,0,0,0,0,0,0,0,0v0s0,0,0,0,0,0,0,0a0,0,0,0,0,0,0v0a0,0,0,0,1,0,0s0,0,0,0v.08a0,0,0,0,1,0,0,.09.09,0,0,1,0,0s0,0,0,0v0a.08.08,0,0,1,0,0,.06.06,0,0,1,0,0s0,0,0,0a.09.09,0,0,0,0,.05v0a.08.08,0,0,1,0,0s0,0,0,0a.06.06,0,0,0,0,0v0s0,0,0,0,0,0,0,0a.09.09,0,0,0,0,0,0,0,0,0,0,0,0v0s0,0,0,0a.08.08,0,0,0,0,0,0,0,0,0,0,0,0v0s0,0,0,0a513785625497.73,513785625497.73,0,0,0,0,.08v0a0,0,0,0,1,0,0s0,0,0,0,0,0,0,0v0a.08.08,0,0,1,0,0,.06.06,0,0,1,0,0s0,0,0,0V93a0,0,0,0,1,0,0,.08.08,0,0,1,0,0s0,0,0,0v0s0,0,0,0,0,0,0,0,0,0,0,0,0,0,0,0v0a.06.06,0,0,1,0,0s0,0,0,0a.08.08,0,0,0,0,0,0,0,0,0,0,0,0v0s0,0,0,0a513785625497.7,513785625497.7,0,0,0,0,.08v0s0,0,0,0a.09.09,0,0,0,0,0,0,0,0,0,0,0,0v0s0,0,0,0,0,0,0,0a0,0,0,0,0,0,0V94a0,0,0,0,1,0,0,.08.08,0,0,1,0,0s0,0,0,0v0s0,0,0,0,0,0,0,0,0,0,0,0v0a.08.08,0,0,1,0,0,.06.06,0,0,1,0,0s0,0,0,0a.08.08,0,0,0,0,0v0a.09.09,0,0,1,0,0s0,0,0,0a1027571250994.78,1027571250994.78,0,0,0,0,.08v0s0,0,0,0a.09.09,0,0,0,0,0,0,0,0,0,0,0,0v0s0,0,0,0a.06.06,0,0,0,0,0,0,0,0,0,0,0,0v.08s0,0,0,0a.06.06,0,0,0,0,0v0a0,0,0,0,1,0,0,.09.09,0,0,1,0,0s0,0,0,0v0a.08.08,0,0,1,0,0,.06.06,0,0,1,0,0s0,0,0,0v0a0,0,0,0,1,0,0,.08.08,0,0,1,0,0s0,0,0,0a.06.06,0,0,0,0,0v0s0,0,0,0,0,0,0,0a.09.09,0,0,0,0,0v0a.06.06,0,0,1,0,0s0,0,0,0a.06.06,0,0,0,0,0,0,0,0,0,0,0,0v.08a.06.06,0,0,0,0,0,.06.06,0,0,0,0,0v0s0,0,0,0,0,0,0,0a0,0,0,0,0,0,0v0a.08.08,0,0,1,0,0s0,0,0,0,0,0,0,0v0a0,0,0,0,1,0,0,.08.08,0,0,1,0,0s0,0,0,0v0s0,0,0,0,0,0,0,0,0,0,0,0v0a0,0,0,0,1,0,0,.06.06,0,0,1,0,0s0,0,0,0a.06.06,0,0,0,0,0v0a.09.09,0,0,1,0,.05v0a1027571250994.62,1027571250994.62,0,0,0,0,.08v0s0,0,0,0a.09.09,0,0,0,0,0,0,0,0,0,0,0,0v0s0,0,0,0a.06.06,0,0,0,0,0,.08.08,0,0,0,0,0v0a0,0,0,0,1,0,0s0,0,0,0,0,0,0,0v0s0,0,0,0,0,0,0,0,0,0,0,0v0a.08.08,0,0,1,0,0,.06.06,0,0,1,0,0s0,0,0,0v0a0,0,0,0,1,0,0,.09.09,0,0,1,0,.05v0a.06.06,0,0,0,0,0v0a.06.06,0,0,1,0,0s0,0,0,0a.09.09,0,0,0,0,0,0,0,0,0,0,0,0v.08a.06.06,0,0,0,0,0,0,0,0,0,0,0,0v0s0,0,0,0,0,0,0,0,0,0,0,0v0s0,0,0,0,0,0,0,0a0,0,0,0,0,0,0v0a.08.08,0,0,1,0,0,.06.06,0,0,1,0,0s0,0,0,0v0a0,0,0,0,1,0,0A.09.09,0,0,1,15,99v.07s0,0,0,0,0,0,0,0,0,0,0,0a.09.09,0,0,0,0,0v0a.06.06,0,0,1,0,0v0a.06.06,0,0,0,0,0v0a.09.09,0,0,1,0,0s0,0,0,0,0,0,0,0,0,0,0,0v0s0,0,0,0a.09.09,0,0,0,0,0,0,0,0,0,0,0,0v0s0,0,0,0v0a.08.08,0,0,0,0,0v0a0,0,0,0,1,0,0s0,0,0,.05v.07s0,0,0,0,0,0,0,0,0,0,0,0v0a0,0,0,0,1,0,0,.06.06,0,0,1,0,0v.08a0,0,0,0,1,0,0,.09.09,0,0,1,0,0s0,0,0,0a.06.06,0,0,0,0,0v0a.06.06,0,0,1,0,0s0,0,0,0a.09.09,0,0,0,0,0,0,0,0,0,0,0,0v0s0,0,0,0a.06.06,0,0,0,0,0,.08.08,0,0,0,0,0v0s0,0,0,0,0,0,0,0,0,0,0,0v0s0,0,0,0,0,0,0,0,0,0,0,0v0a0,0,0,0,1,0,0,.06.06,0,0,1,0,0v.08a0,0,0,0,1,0,0,.09.09,0,0,1,0,0s0,0,0,0v0a.06.06,0,0,1,0,0,.06.06,0,0,1,0,0s0,0,0,0a.09.09,0,0,0,0,0v0a.08.08,0,0,1,0,0s0,0,0,0a.06.06,0,0,0,0,0,.08.08,0,0,0,0,0v0s0,0,0,0,0,0,0,0,0,0,0,0v0s0,0,0,0a.08.08,0,0,0,0,0,0,0,0,0,0,0,0v0s0,0,0,0,0,0,0,0a.08.08,0,0,0,0,0v0a0,0,0,0,1,0,0,.09.09,0,0,1,0,0s0,0,0,0v0a1027571250993.23,1027571250993.23,0,0,1,0,.08s0,0,0,0v0a0,0,0,0,1,0,0,.08.08,0,0,1,0,0s0,0,0,0a.06.06,0,0,0,0,0v0a.09.09,0,0,1,0,0s0,0,0,0,0,0,0,0,0,0,0,0v0s0,0,0,0a.08.08,0,0,0,0,0,0,0,0,0,0,0,0v0s0,0,0,0a.06.06,0,0,0,0,0,.08.08,0,0,0,0,0v0s0,0,0,0,0,0,0,0a0,0,0,0,0,0,0v0a.06.06,0,0,1,0,0s0,0,0,0,0,0,0,0v0a0,0,0,0,1,0,0,.06.06,0,0,1,0,0s0,0,0,0v0a0,0,0,0,1,0,0,.09.09,0,0,1,0,0s0,0,0,0,0,0,0,0v0a.06.06,0,0,1,0,0s0,0,0,0a.08.08,0,0,0,0,0v0a.08.08,0,0,1,0,0s0,0,0,0a.06.06,0,0,0,0,0,.08.08,0,0,0,0,0v0s0,0,0,0a.09.09,0,0,0,0,0,0,0,0,0,0,0,0v0s0,0,0,0a.08.08,0,0,0,0,0,0,0,0,0,0,0,0v0a0,0,0,0,1,0,0v0s0,0,0,0v0a0,0,0,0,1,0,0,.09.09,0,0,1,0,0s0,0,0,0v0a.08.08,0,0,1,0,0,.06.06,0,0,1,0,0s0,0,0,0v0a0,0,0,0,1,0,0,.08.08,0,0,1,0,0s0,0,0,0a.06.06,0,0,0,0,0v0s0,0,0,0,0,0,0,0,0,0,0,0,0,0,0,0v0s0,0,0,0a.08.08,0,0,0,0,0,0,0,0,0,0,0,0v0s0,0,0,0a256892812747.72,256892812747.72,0,0,1,0,.08v0a0,0,0,0,1,0,0s0,0,0,0a0,0,0,0,0,0,0v0a.06.06,0,0,1,0,0,.06.06,0,0,1,0,0s0,0,0,0v0a0,0,0,0,1,0,0,.08.08,0,0,1,0,0s0,0,0,0v0s0,0,0,0,0,0,0,0,0,0,0,0,0,0,0,0v0a.06.06,0,0,1,0,0s0,0,0,0a.08.08,0,0,0,0,0,0,0,0,0,0,0,0v0s0,0,0,0a.06.06,0,0,0,0,0,.08.08,0,0,0,0,0v0s0,0,0,0a.09.09,0,0,0,0,0,0,0,0,0,0,0,0v0s0,0,0,0,0,0,0,0a0,0,0,0,0,0,0v0a0,0,0,0,1,0,0,.08.08,0,0,1,0,0s0,0,0,0v0a0,0,0,0,1,0,0,.09.09,0,0,1,0,0s0,0,0,0v0a.08.08,0,0,1,0,0,.06.06,0,0,1,0,0s0,0,0,0a.08.08,0,0,0,0,0v0a.08.08,0,0,1,0,0s0,0,0,0a.06.06,0,0,0,0,0v0s0,0,0,0,0,0,0,0a.09.09,0,0,0,0,0,0,0,0,0,0,0,0v0s0,0,0,0a.06.06,0,0,0,0,0,0,0,0,0,0,0,0v0s0,0,0,0,0,0,0,0a.06.06,0,0,0,0,0v0a0,0,0,0,1,0,0s0,0,0,0,0,0,0,0v0a.08.08,0,0,1,0,0,.06.06,0,0,1,0,0s0,0,0,0v0a0,0,0,0,1,0,0,.08.08,0,0,1,0,0s0,0,0,0v0s0,0,0,0,0,0,0,0,0,0,0,0a.09.09,0,0,0,0,0v0a.06.06,0,0,1,0,0s0,0,0,0a.06.06,0,0,0,0,0,0,0,0,0,0,0,0v0s0,0,0,0a256892812749.2,256892812749.2,0,0,0,0,.08v0s0,0,0,0a.09.09,0,0,0,0,0,0,0,0,0,0,0,0v0a.08.08,0,0,1,0,0s0,0,0,0,0,0,0,0v0a0,0,0,0,1,0,0,.08.08,0,0,1,0,0s0,0,0,0v0s0,0,0,0,0,0,0,0,0,0,0,0v0a0,0,0,0,1,0,0,.06.06,0,0,1,0,0s0,0,0,0a.08.08,0,0,0,0,0v0a.09.09,0,0,1,0,0s0,0,0,0a256892812749.25,256892812749.25,0,0,0,0,.08v0s0,0,0,0a.09.09,0,0,0,0,0,0,0,0,0,0,0,0v0s0,0,0,0a.06.06,0,0,0,0,0,0,0,0,0,0,0,0v.05s0,0,0,0,0,0,0,0,0,0,0,0v0a0,0,0,0,1,0,0,.09.09,0,0,1,0,0s0,0,0,0v0a.08.08,0,0,1,0,0,.06.06,0,0,1,0,0s0,0,0,0v0a0,0,0,0,1,0,0,.09.09,0,0,1,0,0s0,0,0,0a.06.06,0,0,0,0,0v0a.06.06,0,0,1,0,0s0,0,0,0a.09.09,0,0,0,0,0,0,0,0,0,0,0,0v0s0,0,0,0a.06.06,0,0,0,0,0,0,0,0,0,0,0,0v.05s0,0,0,0,0,0,0,0,0,0,0,0v0s0,0,0,0,0,0,0,0a0,0,0,0,0,0,0v0a.08.08,0,0,1,0,0s0,0,0,0,0,0,0,0v0a0,0,0,0,1,0,0,.09.09,0,0,1,0,0s0,0,0,0v0s0,0,0,0,0,0,0,0,0,0,0,0a.09.09,0,0,0,0,0v0a.06.06,0,0,1,0,0s0,0,0,0a.06.06,0,0,0,0,0v0a.09.09,0,0,1,0,.05s0,0,0,0,0,0,0,0a.06.06,0,0,0,0,0v0s0,0,0,0a.09.09,0,0,0,0,0,0,0,0,0,0,0,0v0s0,0,0,0a.06.06,0,0,0,0,0,.08.08,0,0,0,0,0v0a0,0,0,0,1,0,0s0,0,0,0,0,0,0,0v0s0,0,0,0,0,0,0,0,0,0,0,0v0a0,0,0,0,1,0,0,.06.06,0,0,1,0,0s0,0,0,0v0a0,0,0,0,1,0,0,.09.09,0,0,1,0,.05s0,0,0,0a.06.06,0,0,0,0,0v0a.06.06,0,0,1,0,0s0,0,0,0a.09.09,0,0,0,0,0,0,0,0,0,0,0,0v0s0,0,0,0a.06.06,0,0,0,0,0,.08.08,0,0,0,0,0v0s0,0,0,0,0,0,0,0,0,0,0,0v0s0,0,0,0,0,0,0,0a0,0,0,0,0,0,0v0a0,0,0,0,1,0,0,.06.06,0,0,1,0,0s0,0,0,0v0a0,0,0,0,1,0,0,.09.09,0,0,1,0,.05s0,0,0,0v0a256892812749.19,256892812749.19,0,0,0,0,.08s0,0,0,0a.09.09,0,0,0,0,0v0a.08.08,0,0,1,0,0s0,0,0,0a.06.06,0,0,0,0,0,0,0,0,0,0,0,0v0s0,0,0,0,0,0,0,0,0,0,0,0v0s0,0,0,0a.08.08,0,0,0,0,0,0,0,0,0,0,0,0v0s0,0,0,0v0a.08.08,0,0,0,0,0v0a0,0,0,0,1,0,0,.09.09,0,0,1,0,.05s0,0,0,0v0a256892812749.24,256892812749.24,0,0,0,0,.08s0,0,0,0v0a0,0,0,0,1,0,0,.06.06,0,0,1,0,0v0a.06.06,0,0,0,0,0v0a.09.09,0,0,1,0,0s0,0,0,0,0,0,0,0v0a.06.06,0,0,1,0,0s0,0,0,0a.09.09,0,0,0,0,0,0,0,0,0,0,0,0v0s0,0,0,0a.06.06,0,0,0,0,0,.08.08,0,0,0,0,0v0s0,0,0,0a.09.09,0,0,0,0,.05,0,0,0,0,0,0,0v0a.06.06,0,0,1,0,0s0,0,0,0,0,0,0,0v0a0,0,0,0,1,0,0,.06.06,0,0,1,0,0V117a0,0,0,0,1,0,0,.09.09,0,0,1,0,0s0,0,0,0v0a.08.08,0,0,1,0,0,.06.06,0,0,1,0,0s0,0,0,0a.09.09,0,0,0,0,0v0a.08.08,0,0,1,0,0s0,0,0,0a.06.06,0,0,0,0,0,.08.08,0,0,0,0,0v0s0,0,0,0,0,0,0,0,0,0,0,0v0s0,0,0,0a.08.08,0,0,0,0,0,0,0,0,0,0,0,0v0a0,0,0,0,1,0,0s0,0,0,0a.06.06,0,0,0,0,0v0a0,0,0,0,1,0,0,.09.09,0,0,1,0,0s0,0,0,0v0a256892812747.77,256892812747.77,0,0,1,0,.08s0,0,0,0v0a0,0,0,0,1,0,0,.08.08,0,0,1,0,0s0,0,0,0a.06.06,0,0,0,0,0v0a.09.09,0,0,1,0,0s0,0,0,0,0,0,0,0,0,0,0,0v0s0,0,0,0a.08.08,0,0,0,0,0,0,0,0,0,0,0,0v0s0,0,0,0a256892812749.27,256892812749.27,0,0,0,0,.08v0s0,0,0,0,0,0,0,0a0,0,0,0,0,0,0v0a.06.06,0,0,1,0,0,.06.06,0,0,1,0,0s0,0,0,0v0a0,0,0,0,1,0,0,.08.08,0,0,1,0,0s0,0,0,0v0a0,0,0,0,1,0,0,.09.09,0,0,1,0,0s0,0,0,0,0,0,0,0v0a.06.06,0,0,1,0,0s0,0,0,0a.08.08,0,0,0,0,0,0,0,0,0,0,0,0v0s0,0,0,0a.06.06,0,0,0,0,0,.08.08,0,0,0,0,0v0s0,0,0,0a.09.09,0,0,0,0,0,0,0,0,0,0,0,0v0s0,0,0,0,0,0,0,0a0,0,0,0,0,0,0v0a0,0,0,0,1,0,0s0,0,0,0,0,0,0,0v0a0,0,0,0,1,0,0,.09.09,0,0,1,0,0s0,0,0,0v0a.08.08,0,0,1,0,0,.06.06,0,0,1,0,0s0,0,0,0a.08.08,0,0,0,0,0v0a.08.08,0,0,1,0,0s0,0,0,0a.06.06,0,0,0,0,0v0s0,0,0,0,0,0,0,0a.09.09,0,0,0,0,0,0,0,0,0,0,0,0v0s0,0,0,0a.06.06,0,0,0,0,0,0,0,0,0,0,0,0v0s0,0,0,0a256892812747.74,256892812747.74,0,0,1,0,.08v0a0,0,0,0,1,0,0s0,0,0,0,0,0,0,0v0a.08.08,0,0,1,0,0,.06.06,0,0,1,0,0s0,0,0,0v0a0,0,0,0,1,0,0,.08.08,0,0,1,0,0s0,0,0,0v0s0,0,0,0,0,0,0,0,0,0,0,0a.09.09,0,0,0,0,0v0a.06.06,0,0,1,0,0s0,0,0,0a.08.08,0,0,0,0,0,0,0,0,0,0,0,0v0s0,0,0,0a513785625496.42,513785625496.42,0,0,1,0,.08v0s0,0,0,0a.09.09,0,0,0,0,0,0,0,0,0,0,0,0v0s0,0,0,0,0,0,0,0a0,0,0,0,0,0,0v0a0,0,0,0,1,0,0,.08.08,0,0,1,0,0s0,0,0,0v0s0,0,0,0,0,0,0,0,0,0,0,0v0a.08.08,0,0,1,0,0,.06.06,0,0,1,0,0s0,0,0,0a.08.08,0,0,0,0,0v0a.09.09,0,0,1,0,0s0,0,0,0a.06.06,0,0,0,0,0,.06.06,0,0,0,0,0v0s0,0,0,0a.09.09,0,0,0,0,0,0,0,0,0,0,0,0v0s0,0,0,0a.06.06,0,0,0,0,0,0,0,0,0,0,0,0v0s0,0,0,0,0,0,0,0,0,0,0,0v0a0,0,0,0,1,0,0s0,0,0,0,0,0,0,0v0a.08.08,0,0,1,0,0,.06.06,0,0,1,0,0s0,0,0,0v0a0,0,0,0,1,0,0,.09.09,0,0,1,0,0s0,0,0,0a.06.06,0,0,0,0,0v0s0,0,0,0,0,0,0,0a.09.09,0,0,0,0,0v0a.06.06,0,0,1,0,0s0,0,0,0a.06.06,0,0,0,0,0,0,0,0,0,0,0,0v0s0,0,0,0a256892812749.52,256892812749.52,0,0,0,0,.08v0s0,0,0,0a.09.09,0,0,0,0,0,0,0,0,0,0,0,0v0a.08.08,0,0,1,0,0s0,0,0,0,0,0,0,0v0a0,0,0,0,1,0,0,.08.08,0,0,1,0,0s0,0,0,0v0s0,0,0,0,0,0,0,0,0,0,0,0v0a0,0,0,0,1,0,0,.06.06,0,0,1,0,0s0,0,0,0a.06.06,0,0,0,0,0v0a.09.09,0,0,1,0,0s0,0,0,0a.06.06,0,0,0,0,0,.06.06,0,0,0,0,0v0s0,0,0,0a.09.09,0,0,0,0,0,0,0,0,0,0,0,0v0s0,0,0,0a.06.06,0,0,0,0,0,0,0,0,0,0,0,0v.05c.43,2.2,2.11,4.35,5,6,6.83,3.94,17.87,3.94,24.66,0,2.88-1.68,4.54-3.8,5-6v0s0,0,0,0,0,0,0,0a0,0,0,0,1,0,0v0a171261875168.1,171261875168.1,0,0,1,0-.08s0,0,0,0v0a0,0,0,0,0,0,0,.08.08,0,0,0,0,0v-.08s0,0,0,0,0,0,0,0,0,0,0,0v0a.08.08,0,0,0,0,0,.06.06,0,0,0,0,0s0,0,0,0a.08.08,0,0,1,0,0,0,0,0,0,1,0,0v0s0,0,0,0a.06.06,0,0,1,0,0,.08.08,0,0,1,0,0v0s0,0,0,0,0,0,0,0,0,0,0,0v0s0,0,0,0,0,0,0,0a0,0,0,0,1,0,0v0a0,0,0,0,0,0,0s0,0,0,0v-.08a0,0,0,0,0,0,0,.09.09,0,0,0,0,0s0,0,0,0v0a256892812750.88,256892812750.88,0,0,1,0-.08s0,0,0,0v0a0,0,0,0,0,0,0,.08.08,0,0,0,0,0s0,0,0,0a.06.06,0,0,1,0,0v0s0,0,0,0,0,0,0,0,0,0,0,0,0,0,0,0v0s0,0,0,0a.08.08,0,0,1,0,0,0,0,0,0,1,0,0v0s0,0,0,0a513785625494.77,513785625494.77,0,0,0,0-.08v0a0,0,0,0,0,0,0s0,0,0,0,0,0,0,0v0a.06.06,0,0,0,0,0,.06.06,0,0,0,0,0v-.08a0,0,0,0,0,0,0,.08.08,0,0,0,0,0s0,0,0,0v0s0,0,0,0,0,0,0,0,0,0,0,0,0,0,0,0v0a.06.06,0,0,0,0,0s0,0,0,0a.08.08,0,0,1,0,0,0,0,0,0,1,0,0v0s0,0,0,0a.06.06,0,0,1,0,0,.08.08,0,0,1,0,0v0s0,0,0,0,0,0,0,0,0,0,0,0v0s0,0,0,0,0,0,0,0a0,0,0,0,1,0,0v0a.08.08,0,0,0,0,0,.06.06,0,0,0,0,0s0,0,0,0v0a0,0,0,0,0,0,0,.09.09,0,0,0,0,0s0,0,0,0v0a513785625494.77,513785625494.77,0,0,0,0-.08s0,0,0,0a.09.09,0,0,1,0,0v0a.08.08,0,0,0,0,0s0,0,0,0a.06.06,0,0,1,0,0,.08.08,0,0,1,0,0v0s0,0,0,0,0,0,0,0,0,0,0,0v0s0,0,0,0a.08.08,0,0,1,0,0,0,0,0,0,1,0,0v0s0,0,0,0,0,0,0,0a.08.08,0,0,1,0,0v0a0,0,0,0,0,0,0,.08.08,0,0,0,0,0s0,0,0,0v0a.06.06,0,0,0,0,0s0,0,0,0,0,0,0,0v0a0,0,0,0,0,0,0,.06.06,0,0,0,0,0s0,0,0,0v0a0,0,0,0,0,0,0,.09.09,0,0,0,0,0s0,0,0,0,0,0,0,0a.06.06,0,0,1,0,0v0s0,0,0,0a.08.08,0,0,1,0,0,0,0,0,0,1,0,0v0s0,0,0,0a.06.06,0,0,1,0,0,.08.08,0,0,1,0,0v0s0,0,0,0,0,0,0,0,0,0,0,0v0s0,0,0,0,0,0,0,0,0,0,0,0v0a.08.08,0,0,0,0,0,.06.06,0,0,0,0,0s0,0,0,0v0a0,0,0,0,0,0,0,.09.09,0,0,0,0,0s0,0,0,0v0a.06.06,0,0,0,0,0s0,0,0,0,0,0,0,0a.09.09,0,0,1,0-.05v0a.08.08,0,0,0,0,0s0,0,0,0a.06.06,0,0,1,0,0,.08.08,0,0,1,0,0v0s0,0,0,0,0,0,0,0a.06.06,0,0,1,0,0v0s0,0,0,0a.08.08,0,0,1,0,0,0,0,0,0,1,0,0v0a.08.08,0,0,0,0,0s0,0,0,0,0,0,0,0v0a0,0,0,0,0,0,0,.08.08,0,0,0,0,0s0,0,0,0v0s0,0,0,0,0,0,0,0,0,0,0,0v0a.08.08,0,0,0,0,0,.06.06,0,0,0,0,0s0,0,0,0a.08.08,0,0,1,0,0v0a.08.08,0,0,0,0,0s0,0,0,0a513785625499.5,513785625499.5,0,0,1,0-.08v0s0,0,0,0a.09.09,0,0,1,0,0,0,0,0,0,1,0,0v0s0,0,0,0a.06.06,0,0,1,0,0,.08.08,0,0,1,0,0v0s0,0,0,0,0,0,0,0,0,0,0,0v0s0,0,0,0,0,0,0,0,0,0,0,0v0a.08.08,0,0,0,0,0,.06.06,0,0,0,0,0s0,0,0,0v0a0,0,0,0,0,0,0,.08.08,0,0,0,0,0s0,0,0,0a.06.06,0,0,1,0,0v0s0,0,0,0,0,0,0,0,0,0,0,0,0,0,0,0v0s0,0,0,0a.08.08,0,0,1,0,0,0,0,0,0,1,0,0v-.05s0,0,0,0a513785625494.67,513785625494.67,0,0,0,0-.08v0s0,0,0,0,0,0,0,0a0,0,0,0,1,0,0v0a162248092263,162248092263,0,0,0,0-.08s0,0,0,0v0a0,0,0,0,0,0,0,.08.08,0,0,0,0,0s0,0,0,0v0s0,0,0,0,0,0,0,0,0,0,0,0v0a.08.08,0,0,0,0,0,.06.06,0,0,0,0,0s0,0,0,0a.08.08,0,0,1,0,0,0,0,0,0,1,0,0v0s0,0,0,0a171261875163.25,171261875163.25,0,0,0,0-.08v0s0,0,0,0a.09.09,0,0,1,0,0,0,0,0,0,1,0,0v0s0,0,0,0,0,0,0,0a0,0,0,0,1,0,0v0a0,0,0,0,0,0,0s0,0,0,0v-.08s0,0,0,0,0,0,0,0,0,0,0,0v0a.08.08,0,0,0,0,0,.06.06,0,0,0,0,0s0,0,0,0v0a0,0,0,0,0,0,0,.08.08,0,0,0,0,0s0,0,0,0a.06.06,0,0,1,0,0v0s0,0,0,0,0,0,0,0,0,0,0,0,0,0,0,0v0s0,0,0,0a.08.08,0,0,1,0,0,0,0,0,0,1,0,0v0s0,0,0,0a513785625499.55,513785625499.55,0,0,1,0-.08v0a0,0,0,0,0,0,0s0,0,0,0,0,0,0,0v0a162248092261.4,162248092261.4,0,0,1,0-.08s0,0,0,0v0a0,0,0,0,0,0,0,.08.08,0,0,0,0,0s0,0,0,0v0s0,0,0,0,0,0,0,0,0,0,0,0,0,0,0,0v0a.06.06,0,0,0,0,0s0,0,0,0a.08.08,0,0,1,0,0,0,0,0,0,1,0,0v0s0,0,0,0a.06.06,0,0,1,0,0,.08.08,0,0,1,0,0v0s0,0,0,0,0,0,0,0,0,0,0,0v0s0,0,0,0,0,0,0,0a0,0,0,0,1,0,0V113a0,0,0,0,0,0,0,.06.06,0,0,0,0,0s0,0,0,0v0a0,0,0,0,0,0,0,.09.09,0,0,0,0,0s0,0,0,0v0a.08.08,0,0,0,0,0,.06.06,0,0,0,0,0s0,0,0,0a.08.08,0,0,1,0,0v0a.08.08,0,0,0,0,0s0,0,0,0a.06.06,0,0,1,0,0,.08.08,0,0,1,0,0v0s0,0,0,0,0,0,0,0,0,0,0,0v0s0,0,0,0a.08.08,0,0,1,0,0,0,0,0,0,1,0,0v0s0,0,0,0,0,0,0,0a.06.06,0,0,1,0,0v0a0,0,0,0,0,0,0,.09.09,0,0,0,0,0s0,0,0,0v0a513785625494.7,513785625494.7,0,0,0,0-.08s0,0,0,0v0a0,0,0,0,0,0,0,.08.08,0,0,0,0,0s0,0,0,0v0s0,0,0,0,0,0,0,0,0,0,0,0,0,0,0,0v0a.06.06,0,0,0,0,0s0,0,0,0a.08.08,0,0,1,0,0,0,0,0,0,1,0,0v0s0,0,0,0a.06.06,0,0,1,0,0,.08.08,0,0,1,0,0v0s0,0,0,0,0,0,0,0,0,0,0,0v0s0,0,0,0,0,0,0,0,0,0,0,0v0a0,0,0,0,0,0,0,.06.06,0,0,0,0,0s0,0,0,0v0a0,0,0,0,0,0,0,.09.09,0,0,0,0,0s0,0,0,0v0a513785625499.73,513785625499.73,0,0,1,0-.08s0,0,0,0a.09.09,0,0,1,0,0v0a.08.08,0,0,0,0,0s0,0,0,0a.06.06,0,0,1,0,0,.08.08,0,0,1,0,0v0s0,0,0,0,0,0,0,0,0,0,0,0v0s0,0,0,0a.08.08,0,0,1,0,0,0,0,0,0,1,0,0v0s0,0,0,0,0,0,0,0,0,0,0,0v0a0,0,0,0,0,0,0,.08.08,0,0,0,0,0s0,0,0,0v0a.06.06,0,0,0,0,0s0,0,0,0,0,0,0,0v0a0,0,0,0,0,0,0,.06.06,0,0,0,0,0s0,0,0,0a.06.06,0,0,1,0,0v0a.09.09,0,0,0,0,0s0,0,0,0,0,0,0,0a.06.06,0,0,1,0,0v0s0,0,0,0a.08.08,0,0,1,0,0,0,0,0,0,1,0,0v0s0,0,0,0a.06.06,0,0,1,0,0,.08.08,0,0,1,0,0v0s0,0,0,0,0,0,0,0,0,0,0,0v0s0,0,0,0,0,0,0,0,0,0,0,0v0a.08.08,0,0,0,0,0,.06.06,0,0,0,0,0s0,0,0,0v0a0,0,0,0,0,0,0,.08.08,0,0,0,0,0s0,0,0,0a.06.06,0,0,1,0,0v0s0,0,0,0,0,0,0,0a.09.09,0,0,1,0,0,0,0,0,0,1,0,0v0s0,0,0,0a.06.06,0,0,1,0,0,.08.08,0,0,1,0,0v0s0,0,0,0,0,0,0,0a.06.06,0,0,1,0,0v0s0,0,0,0,0,0,0,0a0,0,0,0,1,0,0v0a.08.08,0,0,0,0,0s0,0,0,0,0,0,0,0v0a0,0,0,0,0,0,0,.08.08,0,0,0,0,0s0,0,0,0v0s0,0,0,0,0,0,0,0,0,0,0,0v0a.08.08,0,0,0,0,0,.06.06,0,0,0,0,0s0,0,0,0a.08.08,0,0,1,0,0v0a.09.09,0,0,0,0-.05s0,0,0,0a513785625494.6,513785625494.6,0,0,0,0-.08v0s0,0,0,0a.09.09,0,0,1,0,0,0,0,0,0,1,0,0V106a.06.06,0,0,1,0,0,.08.08,0,0,1,0,0v0a0,0,0,0,0,0,0s0,0,0,0,0,0,0,0v0s0,0,0,0,0,0,0,0,0,0,0,0v0a.08.08,0,0,0,0,0,.06.06,0,0,0,0,0s0,0,0,0v0a0,0,0,0,0,0,0,.08.08,0,0,0,0,0s0,0,0,0a.06.06,0,0,1,0,0v0s0,0,0,0,0,0,0,0,0,0,0,0,0,0,0,0V105a.06.06,0,0,1,0,0,0,0,0,0,1,0,0v0s0,0,0,0,0,0,0,0a.06.06,0,0,1,0,0v0s0,0,0,0,0,0,0,0,0,0,0,0v0a162248092261.39,162248092261.39,0,0,1,0-.08s0,0,0,0v0a0,0,0,0,0,0,0,.08.08,0,0,0,0,0s0,0,0,0v0s0,0,0,0,0,0,0,0,0,0,0,0,0,0,0,0v0a.06.06,0,0,0,0,0s0,0,0,0a.08.08,0,0,1,0,0,0,0,0,0,1,0,0v0s0,0,0,0a513785625494.6,513785625494.6,0,0,0,0-.08v0s0,0,0,0a.09.09,0,0,1,0,0,0,0,0,0,1,0,0v0s0,0,0,0v0a0,0,0,0,1,0,0v0a0,0,0,0,0,0,0,.08.08,0,0,0,0,0s0,0,0,0v0s0,0,0,0,0,0,0,0,0,0,0,0v0a.08.08,0,0,0,0,0,.06.06,0,0,0,0,0s0,0,0,0v0a0,0,0,0,0,0,0,.08.08,0,0,0,0,0s0,0,0,0a.06.06,0,0,1,0,0,.08.08,0,0,1,0,0v0s0,0,0,0,0,0,0,0,0,0,0,0v0s0,0,0,0a.08.08,0,0,1,0,0,0,0,0,0,1,0,0v0s0,0,0,0a.06.06,0,0,1,0,0,.06.06,0,0,1,0,0v0a0,0,0,0,0,0,0s0,0,0,0,0,0,0,0v0a513785625494.6,513785625494.6,0,0,0,0-.08s0,0,0,0v0a0,0,0,0,0,0,0,.08.08,0,0,0,0,0s0,0,0,0v0s0,0,0,0,0,0,0,0,0,0,0,0,0,0,0,0v0a.06.06,0,0,0,0,0s0,0,0,0a.08.08,0,0,1,0,0,0,0,0,0,1,0,0v0s0,0,0,0a.06.06,0,0,1,0,0,.08.08,0,0,1,0,0v0s0,0,0,0a.09.09,0,0,1,0,0,0,0,0,0,1,0,0v0a.06.06,0,0,0,0,0s0,0,0,0,0,0,0,0v0a0,0,0,0,0,0,0,.06.06,0,0,0,0,0s0,0,0,0v0a0,0,0,0,0,0,0,.09.09,0,0,0,0-.05s0,0,0,0v0a162248092261.45,162248092261.45,0,0,1,0-.08s0,0,0,0a.08.08,0,0,1,0,0v0a.08.08,0,0,0,0,0s0,0,0,0a.06.06,0,0,1,0,0,.08.08,0,0,1,0,0v0s0,0,0,0,0,0,0,0,0,0,0,0v0s0,0,0,0a.08.08,0,0,1,0,0,0,0,0,0,1,0,0v0s0,0,0,0v0a.06.06,0,0,1,0,0v0a0,0,0,0,0,0,0,.08.08,0,0,0,0,0s0,0,0,0v0a513785625499.62,513785625499.62,0,0,1,0-.08s0,0,0,0v0a0,0,0,0,0,0,0,.08.08,0,0,0,0,0v0a.06.06,0,0,1,0,0v0s0,0,0,0,0,0,0,0,0,0,0,0,0,0,0,0v0s0,0,0,0a.08.08,0,0,1,0,0,0,0,0,0,1,0,0v0s0,0,0,0a.06.06,0,0,1,0,0,.08.08,0,0,1,0,0v-.07s0,0,0,0,0,0,0,0v0s0,0,0,0,0,0,0,0,0,0,0,0v0a.08.08,0,0,0,0,0,.06.06,0,0,0,0,0v-.08a0,0,0,0,0,0,0,.09.09,0,0,0,0,0s0,0,0,0v0a513785625494.37,513785625494.37,0,0,0,0-.08s0,0,0,0a.08.08,0,0,1,0,0,0,0,0,0,1,0,0v0s0,0,0,0a.06.06,0,0,1,0,0,.08.08,0,0,1,0,0v-.07s0,0,0,0,0,0,0,0v0s0,0,0,0a.08.08,0,0,1,0,0,0,0,0,0,1,0,0v0a.08.08,0,0,0,0,0s0,0,0,0,0,0,0,0v0a0,0,0,0,0,0,0,.08.08,0,0,0,0,0s0,0,0,0v0a.06.06,0,0,0,0,0s0,0,0,0,0,0,0,0v0a.08.08,0,0,0,0,0,.06.06,0,0,0,0,0s0,0,0,0a.06.06,0,0,1,0,0v0a.09.09,0,0,0,0-.05v0s0,0,0,0a.06.06,0,0,1,0,0v0s0,0,0,0a.08.08,0,0,1,0,0,0,0,0,0,1,0,0v0s0,0,0,0a.06.06,0,0,1,0,0,.08.08,0,0,1,0,0v0a0,0,0,0,0,0,0s0,0,0,0,0,0,0,0v0s0,0,0,0,0,0,0,0,0,0,0,0v0a.08.08,0,0,0,0,0,.06.06,0,0,0,0,0s0,0,0,0v0a0,0,0,0,0,0,0,.08.08,0,0,0,0,0s0,0,0,0a.06.06,0,0,1,0,0v0a.06.06,0,0,0,0,0s0,0,0,0a.09.09,0,0,1,0,0,0,0,0,0,1,0,0v-.08a.06.06,0,0,1,0,0,.08.08,0,0,1,0,0v0s0,0,0,0,0,0,0,0a.06.06,0,0,1,0,0v0s0,0,0,0,0,0,0,0a0,0,0,0,1,0,0v0a.08.08,0,0,0,0,0,.06.06,0,0,0,0,0s0,0,0,0v0a0,0,0,0,0,0,0,.08.08,0,0,0,0,0s0,0,0,0v0s0,0,0,0,0,0,0,0,0,0,0,0v0a.08.08,0,0,0,0,0,.06.06,0,0,0,0,0v0a.08.08,0,0,1,0,0,0,0,0,0,1,0,0v0s0,0,0,0a513785625494.31,513785625494.31,0,0,0,0-.08v-.07a.09.09,0,0,1,0-.05,0,0,0,0,1,0,0v0s0,0,0,0v0a.08.08,0,0,1,0,0v0a0,0,0,0,0,0,0s0,0,0,0,0,0,0,0v0s0,0,0,0,0,0,0,0,0,0,0,0v0a.08.08,0,0,0,0,0,.06.06,0,0,0,0,0s0,0,0,0v0a0,0,0,0,0,0,0,.08.08,0,0,0,0,0s0,0,0,0a.06.06,0,0,1,0,0v0s0,0,0,0v0a.09.09,0,0,1,0-.05,0,0,0,0,1,0,0v0s0,0,0,0a.08.08,0,0,1,0,0,0,0,0,0,1,0,0v0s0,0,0,0,0,0,0,0a.06.06,0,0,1,0,0v0s0,0,0,0,0,0,0,0,0,0,0,0v0a513785625499.73,513785625499.73,0,0,1,0-.08s0,0,0,0v0a0,0,0,0,0,0,0,.08.08,0,0,0,0,0s0,0,0,0v0s0,0,0,0,0,0,0,0v0s0,0,0,0v0a.06.06,0,0,0,0,0s0,0,0,0a.08.08,0,0,1,0,0,0,0,0,0,1,0,0v0s0,0,0,0a513785625494.31,513785625494.31,0,0,0,0-.08v0s0,0,0,0a.09.09,0,0,1,0,0,0,0,0,0,1,0,0v-.08s0,0,0,0,0,0,0,0v0a0,0,0,0,0,0,0,.08.08,0,0,0,0,0s0,0,0,0v0s0,0,0,0,0,0,0,0v-.07a.08.08,0,0,0,0,0,.06.06,0,0,0,0,0s0,0,0,0a.08.08,0,0,1,0,0v0a.08.08,0,0,0,0,0s0,0,0,0a.06.06,0,0,1,0,0,.08.08,0,0,1,0,0v0s0,0,0,0,0,0,0,0,0,0,0,0v-.08a.08.08,0,0,1,0,0,0,0,0,0,1,0,0v0s0,0,0,0v0a.06.06,0,0,1,0,0v0a0,0,0,0,0,0,0,.09.09,0,0,0,0-.05v-.07a513785625499.9,513785625499.9,0,0,1,0-.08s0,0,0,0v0a0,0,0,0,0,0,0,.08.08,0,0,0,0,0v0a.06.06,0,0,1,0,0v0s0,0,0,0,0,0,0,0,0,0,0,0,0,0,0,0v0s0,0,0,0a.08.08,0,0,1,0,0,0,0,0,0,1,0,0v0s0,0,0,0a.06.06,0,0,1,0,0,.08.08,0,0,1,0,0v0s0,0,0,0,0,0,0,0,0,0,0,0v0a.06.06,0,0,0,0,0s0,0,0,0,0,0,0,0v0a0,0,0,0,0,0,0,.06.06,0,0,0,0,0v-.08s0,0,0,0,0,0,0,0,0,0,0,0v0a256892812751.13,256892812751.13,0,0,1,0-.08s0,0,0,0a.08.08,0,0,1,0,0v0a.08.08,0,0,0,0,0s0,0,0,0a.06.06,0,0,1,0,0,.08.08,0,0,1,0,0v0s0,0,0,0,0,0,0,0,0,0,0,0v0s0,0,0,0a.08.08,0,0,1,0,0,0,0,0,0,1,0,0v0a.08.08,0,0,0,0,0s0,0,0,0v-.08a0,0,0,0,0,0,0,.09.09,0,0,0,0,0s0,0,0,0v0a.06.06,0,0,0,0,0,.06.06,0,0,0,0,0s0,0,0,0v0a0,0,0,0,0,0,0,.08.08,0,0,0,0,0s0,0,0,0a.06.06,0,0,1,0,0v0s0,0,0,0,0,0,0,0,0,0,0,0,0,0,0,0v0s0,0,0,0a.08.08,0,0,1,0,0,0,0,0,0,1,0,0v0s0,0,0,0a.06.06,0,0,1,0,0,.08.08,0,0,1,0,0v0s0,0,0,0,0,0,0,0,0,0,0,0v0a.06.06,0,0,0,0,0s0,0,0,0,0,0,0,0v0a.08.08,0,0,0,0,0,.06.06,0,0,0,0,0s0,0,0,0v0a0,0,0,0,0,0,0,.09.09,0,0,0,0,0s0,0,0,0a.06.06,0,0,1,0,0v0a.06.06,0,0,0,0,0s0,0,0,0a.08.08,0,0,1,0,0,0,0,0,0,1,0,0V86a.06.06,0,0,1,0,0,.08.08,0,0,1,0,0v0s0,0,0,0,0,0,0,0,0,0,0,0v0s0,0,0,0,0,0,0,0a0,0,0,0,1,0,0v0a.08.08,0,0,0,0,0,.06.06,0,0,0,0,0s0,0,0,0v0a0,0,0,0,0,0,0,.08.08,0,0,0,0,0s0,0,0,0v0a.06.06,0,0,0,0,0s0,0,0,0,0,0,0,0a.09.09,0,0,1,0,0v0a.06.06,0,0,0,0,0v0a.06.06,0,0,1,0,0,0,0,0,0,1,0,0v0s0,0,0,0,0,0,0,0a.06.06,0,0,1,0,0v0s0,0,0,0a.08.08,0,0,1,0,0,0,0,0,0,1,0,0v0s0,0,0,0v0a.08.08,0,0,1,0,0v0a0,0,0,0,0,0,0s0,0,0,0,0,0,0,0v0s0,0,0,0,0,0,0,0,0,0,0,0v0a.08.08,0,0,0,0,0,.06.06,0,0,0,0,0v-.08a0,0,0,0,0,0,0,.09.09,0,0,0,0,0s0,0,0,0a.06.06,0,0,1,0,0v0a.06.06,0,0,0,0,0s0,0,0,0a.09.09,0,0,1,0-.05,0,0,0,0,1,0,0v0s0,0,0,0a.06.06,0,0,1,0,0,.08.08,0,0,1,0,0v0s0,0,0,0,0,0,0,0a.06.06,0,0,1,0,0v0s0,0,0,0,0,0,0,0,0,0,0,0v0a.08.08,0,0,0,0,0,.06.06,0,0,0,0,0s0,0,0,0v0a0,0,0,0,0,0,0,.08.08,0,0,0,0,0s0,0,0,0v0s0,0,0,0,0,0,0,0,0,0,0,0a.09.09,0,0,1,0-.05v0a.06.06,0,0,0,0,0s0,0,0,0a.08.08,0,0,1,0,0,0,0,0,0,1,0,0v0s0,0,0,0a513785625499.84,513785625499.84,0,0,1,0-.08v0s0,0,0,0a.09.09,0,0,1,0,0,0,0,0,0,1,0,0v0s0,0,0,0,0,0,0,0,0,0,0,0v0a0,0,0,0,0,0,0,.08.08,0,0,0,0,0s0,0,0,0v0s0,0,0,0,0,0,0,0,0,0,0,0v0a.08.08,0,0,0,0,0,.06.06,0,0,0,0,0s0,0,0,0a.08.08,0,0,1,0,0v0a.08.08,0,0,0,0,0s0,0,0,0a99442379129,99442379129,0,0,1,0-.08v0s0,0,0,0,0,0,0,0,0,0,0,0v0s0,0,0,0a.06.06,0,0,1,0,0,0,0,0,0,1,0,0v0s0,0,0,0,0,0,0,0a.06.06,0,0,1,0,0v0s0,0,0,0,0,0,0,0,0,0,0,0v0a.08.08,0,0,0,0,0,.06.06,0,0,0,0,0s0,0,0,0v0a0,0,0,0,0,0,0,.08.08,0,0,0,0,0s0,0,0,0v0s0,0,0,0,0,0,0,0,0,0,0,0,0,0,0,0,0,0,0,0v0s0,0,0,0a.08.08,0,0,1,0,0,0,0,0,0,1,0,0v0s0,0,0,0a96334804782.25,96334804782.25,0,0,0,0-.08v0s0,0,0,0a.09.09,0,0,1,0,0,0,0,0,0,1,0,0v0a.06.06,0,0,0,0,0s0,0,0,0,0,0,0,0v0a0,0,0,0,0,0,0,.08.08,0,0,0,0,0V79.3s0,0,0,0,0,0,0,0,0,0,0,0v0a.08.08,0,0,0,0,0,.06.06,0,0,0,0,0s0,0,0,0a.08.08,0,0,1,0,0v0a.08.08,0,0,0,0,0s0,0,0,0a.06.06,0,0,1,0,0,.08.08,0,0,1,0,0v0s0,0,0,0,0,0,0,0,0,0,0,0v0s0,0,0,0a.08.08,0,0,1,0,0,0,0,0,0,1,0,0v0a0,0,0,0,0,0,0s0,0,0,0V78.3a0,0,0,0,0,0,0,.09.09,0,0,0,0,0s0,0,0,0v0a123308550119.26,123308550119.26,0,0,0,0-.08s0,0,0,0v0a0,0,0,0,0,0,0,.08.08,0,0,0,0,0s0,0,0,0a.06.06,0,0,1,0,0v0s0,0,0,0,0,0,0,0,0,0,0,0,0,0,0,0v0s0,0,0,0a.08.08,0,0,1,0,0,0,0,0,0,1,0,0v0s0,0,0,0a474263654302.6,474263654302.6,0,0,1,0-.08v0s0,0,0,0,0,0,0,0,0,0,0,0v0a123308550119.26,123308550119.26,0,0,1,0-.08V77a0,0,0,0,0,0,0,.06.06,0,0,0,0,0s0,0,0,0v0s0,0,0,0,0,0,0,0,0,0,0,0,0,0,0,0v0a.06.06,0,0,0,0,0s0,0,0,0a.08.08,0,0,1,0,0,0,0,0,0,1,0,0v0s0,0,0,0a.06.06,0,0,1,0,0,.08.08,0,0,1,0,0v0s0,0,0,0,0,0,0,0,0,0,0,0v0s0,0,0,0,0,0,0,0a0,0,0,0,1,0,0v0a.08.08,0,0,0,0,0s0,0,0,0,0,0,0,0v0a0,0,0,0,0,0,0,.09.09,0,0,0,0,0s0,0,0,0v0a474263654307.67,474263654307.67,0,0,0,0-.08s0,0,0,0v0a0,0,0,0,0,0,0,.08.08,0,0,0,0,0s0,0,0,0a.06.06,0,0,1,0,0v0s0,0,0,0,0,0,0,0,0,0,0,0,0,0,0,0v0s0,0,0,0a.08.08,0,0,1,0,0,0,0,0,0,1,0,0v0s0,0,0,0a.06.06,0,0,1,0,0,.08.08,0,0,1,0,0v0a0,0,0,0,0,0,0s0,0,0,0,0,0,0,0v0a.06.06,0,0,0,0,0s0,0,0,0,0,0,0,0v0a0,0,0,0,0,0,0,.06.06,0,0,0,0,0s0,0,0,0v0a0,0,0,0,0,0,0,.09.09,0,0,0,0,0s0,0,0,0,0,0,0,0v0a.06.06,0,0,0,0,0s0,0,0,0a.08.08,0,0,1,0,0,0,0,0,0,1,0,0v0s0,0,0,0a.06.06,0,0,1,0,0,.08.08,0,0,1,0,0v0s0,0,0,0,0,0,0,0,0,0,0,0v0s0,0,0,0,0,0,0,0,0,0,0,0v0a.08.08,0,0,0,0,0,.06.06,0,0,0,0,0s0,0,0,0v0a0,0,0,0,0,0,0,.09.09,0,0,0,0,0s0,0,0,0v0a.06.06,0,0,0,0,0s0,0,0,0,0,0,0,0a.09.09,0,0,1,0-.05v0a.06.06,0,0,0,0,0s0,0,0,0a.06.06,0,0,1,0,0,0,0,0,0,1,0,0v0s0,0,0,0,0,0,0,0a.06.06,0,0,1,0,0v0s0,0,0,0a.08.08,0,0,1,0,0,0,0,0,0,1,0,0v0s0,0,0,0,0,0,0,0a.08.08,0,0,1,0,0v0a0,0,0,0,0,0,0,.08.08,0,0,0,0,0s0,0,0,0v0s0,0,0,0,0,0,0,0,0,0,0,0v0a.08.08,0,0,0,0,0,.06.06,0,0,0,0,0s0,0,0,0v0a0,0,0,0,0,0,0,.08.08,0,0,0,0,0s0,0,0,0a166633175836,166633175836,0,0,0,0-.08v0s0,0,0,0a.09.09,0,0,1,0,0,0,0,0,0,1,0,0v0s0,0,0,0a.06.06,0,0,1,0,0,.08.08,0,0,1,0,0v0s0,0,0,0,0,0,0,0a.06.06,0,0,1,0,0v0s0,0,0,0,0,0,0,0,0,0,0,0v0a.08.08,0,0,0,0,0,.06.06,0,0,0,0,0s0,0,0,0v0a0,0,0,0,0,0,0,.08.08,0,0,0,0,0s0,0,0,0v0s0,0,0,0,0,0,0,0,0,0,0,0,0,0,0,0v0a.06.06,0,0,0,0,0s0,0,0,0a.08.08,0,0,1,0,0,0,0,0,0,1,0,0v-.05s0,0,0,0a166633175837.82,166633175837.82,0,0,1,0-.08v0s0,0,0,0a.09.09,0,0,1,0,0,0,0,0,0,1,0,0v0a.06.06,0,0,0,0,0s0,0,0,0,0,0,0,0v0a0,0,0,0,0,0,0,.08.08,0,0,0,0,0s0,0,0,0v0s0,0,0,0,0,0,0,0,0,0,0,0v0a.08.08,0,0,0,0,0,.06.06,0,0,0,0,0s0,0,0,0a.08.08,0,0,1,0,0v0a.08.08,0,0,0,0,0s0,0,0,0a166633175837.81,166633175837.81,0,0,1,0-.08v0s0,0,0,0a.09.09,0,0,1,0,0,0,0,0,0,1,0,0v0s0,0,0,0a.06.06,0,0,1,0,0,0,0,0,0,1,0,0v0s0,0,0,0,0,0,0,0v-.08s0,0,0,0,0,0,0,0,0,0,0,0v0a474263654302.38,474263654302.38,0,0,1,0-.08s0,0,0,0v0a0,0,0,0,0,0,0,.08.08,0,0,0,0,0s0,0,0,0a.06.06,0,0,1,0,0v0s0,0,0,0,0,0,0,0,0,0,0,0,0,0,0,0v0s0,0,0,0a.08.08,0,0,1,0,0,0,0,0,0,1,0,0v0s0,0,0,0a162248092263.16,162248092263.16,0,0,0,0-.08v0s0,0,0,0,0,0,0,0a0,0,0,0,1,0,0v0a474263654302.18,474263654302.18,0,0,1,0-.08s0,0,0,0v0a0,0,0,0,0,0,0,.08.08,0,0,0,0,0s0,0,0,0v0s0,0,0,0,0,0,0,0,0,0,0,0v0a.08.08,0,0,0,0,0,.06.06,0,0,0,0,0s0,0,0,0a.08.08,0,0,1,0,0,0,0,0,0,1,0,0v0s0,0,0,0a.06.06,0,0,1,0,0,.08.08,0,0,1,0,0v0s0,0,0,0,0,0,0,0,0,0,0,0v0s0,0,0,0,0,0,0,0a0,0,0,0,1,0,0v-.05a0,0,0,0,0,0,0s0,0,0,0,0,0,0,0v0a0,0,0,0,0,0,0,.09.09,0,0,0,0,0s0,0,0,0v0a166633175837.8,166633175837.8,0,0,1,0-.08s0,0,0,0v0a0,0,0,0,0,0,0,.08.08,0,0,0,0,0s0,0,0,0a.06.06,0,0,1,0,0v0s0,0,0,0,0,0,0,0,0,0,0,0,0,0,0,0v0s0,0,0,0a.08.08,0,0,1,0,0,0,0,0,0,1,0,0v0s0,0,0,0a6165427506033.73,6165427506033.73,0,0,0,0-.08v0a0,0,0,0,0,0,0s0,0,0,0,0,0,0,0v0a.06.06,0,0,0,0,0s0,0,0,0,0,0,0,0v0a0,0,0,0,0,0,0,.08.08,0,0,0,0,0s0,0,0,0v0s0,0,0,0,0,0,0,0,0,0,0,0,0,0,0,0v0a.06.06,0,0,0,0,0s0,0,0,0a.08.08,0,0,1,0,0,0,0,0,0,1,0,0v0s0,0,0,0a.06.06,0,0,1,0,0,.08.08,0,0,1,0,0v0s0,0,0,0,0,0,0,0,0,0,0,0v0s0,0,0,0,0,0,0,0,0,0,0,0v0a.08.08,0,0,0,0,0,.06.06,0,0,0,0,0v-.08a0,0,0,0,0,0,0,.09.09,0,0,0,0,0s0,0,0,0v0a143382035021.18,143382035021.18,0,0,0,0-.08v0a.09.09,0,0,1,0-.05v0a.08.08,0,0,0,0,0v0a.06.06,0,0,1,0,0,.08.08,0,0,1,0,0v0s0,0,0,0,0,0,0,0,0,0,0,0v0s0,0,0,0a.08.08,0,0,1,0,0,0,0,0,0,1,0,0v0s0,0,0-.05v0a.11.11,0,0,1,0,0v0a.43.43,0,0,1,0,0v0a.09.09,0,0,1,0,0C68.72,57.63,65.81,52.32,59,48.4Z" opacity="0.75" fill="url(#linear-gradient)"/><g style="isolation:isolate"><path d="M19.11,66.1a11.48,11.48,0,0,0,5.19,9l-7.39,4.29a11.48,11.48,0,0,1-5.19-9Z" fill="#20d8e5"/><path d="M20.63,62.76a3.63,3.63,0,0,0-1.52,3.34l-7.39,4.29a3.64,3.64,0,0,1,1.52-3.33Z" fill="#20d8e5"/><path d="M13.24,67.06l7.39-4.3a3.69,3.69,0,0,1,3.71.36,8.55,8.55,0,0,1,1,.73L18,68.14a7.47,7.47,0,0,0-1-.72A3.67,3.67,0,0,0,13.24,67.06Z" fill="#e8e8f9"/><polygon points="17.99 68.14 25.38 63.85 27.32 65.42 19.93 69.72 17.99 68.14" fill="#e8e8f9"/><path d="M11.92,64.79l7.39-4.29c1.29-.75,3.07-.65,5,.49a10.91,10.91,0,0,1,1.42,1l-7.39,4.3a10.09,10.09,0,0,0-1.42-1C15,64.15,13.21,64,11.92,64.79Z" fill="#6a58db"/><polygon points="20.21 67.62 27.6 63.33 27.32 65.42 19.93 69.72 20.21 67.62" fill="#20d8e5"/><path d="M28.84,61.18a2.78,2.78,0,0,0-1.24,2.15l-7.39,4.29a2.78,2.78,0,0,1,1.24-2.14Z" fill="#20d8e5"/><path d="M21.45,65.48l7.39-4.3a3.1,3.1,0,0,1,3.13.3,8.13,8.13,0,0,1,2.3,2.09l-7.38,4.29a8.29,8.29,0,0,0-2.31-2.09A3.12,3.12,0,0,0,21.45,65.48Z" fill="#e8e8f9"/><polygon points="26.89 67.86 34.27 63.56 35.88 65.63 28.49 69.92 26.89 67.86" fill="#e8e8f9"/><path d="M20.14,63.2l7.39-4.29c1.14-.67,2.71-.57,4.45.43a11.87,11.87,0,0,1,3.28,3l-7.39,4.3a11.92,11.92,0,0,0-3.28-3C22.85,62.63,21.28,62.54,20.14,63.2Z" fill="#6a58db"/><polygon points="29.46 68.62 36.85 64.33 35.88 65.63 28.49 69.92 29.46 68.62" fill="#20d8e5"/><polygon points="16.91 79.39 24.3 75.1 53.51 91.96 46.13 96.25 16.91 79.39" fill="#20d8e5"/><path d="M38.13,63.17a4.37,4.37,0,0,0-1.28,1.16l-7.39,4.29a4.42,4.42,0,0,1,1.29-1.16Z" fill="#20d8e5"/><path d="M53.51,92a2.76,2.76,0,0,0,2.77.27l-7.39,4.29a2.75,2.75,0,0,1-2.77-.26Z" fill="#20d8e5"/><polygon points="44.88 86.32 52.26 82.03 54.12 83.43 46.73 87.72 44.88 86.32" fill="#e8e8f9"/><polygon points="45.19 84.37 52.57 80.07 52.26 82.03 44.88 86.32 45.19 84.37" fill="#e8e8f9"/><path d="M56.28,92.23l-7.39,4.29A2.69,2.69,0,0,0,50,94a8.65,8.65,0,0,0-3.28-6.3l7.38-4.3a8.7,8.7,0,0,1,3.29,6.31A2.73,2.73,0,0,1,56.28,92.23Z" fill="#e8e8f9"/><path d="M30.75,67.46l7.38-4.29c1.59-.92,3.74-.73,6.06.61l-7.39,4.3C34.48,66.74,32.33,66.54,30.75,67.46Z" fill="#e8e8f9"/><path d="M57.59,94.5,50.2,98.79a4,4,0,0,0,1.68-3.68A12.78,12.78,0,0,0,47,85.77l7.39-4.29a12.76,12.76,0,0,1,4.86,9.33A4,4,0,0,1,57.59,94.5Z" fill="#6a58db"/><path d="M36.8,68.08l7.39-4.3c4.71,2.72,8.53,9.33,8.51,14.74a8.68,8.68,0,0,1-.13,1.55l-7.38,4.3a10,10,0,0,0,.12-1.56C45.33,77.4,41.51,70.79,36.8,68.08Z" fill="#e8e8f9"/><path d="M47,85.77a12.78,12.78,0,0,1,4.86,9.34c0,3.64-2.59,5.11-5.76,3.28L16.91,81.53a15.54,15.54,0,0,1-7-12.21c0-4.48,3.19-6.29,7.09-4a10.09,10.09,0,0,1,1.42,1c.43-3.27,3.05-4.46,6.22-2.64a11.92,11.92,0,0,1,3.28,3c1.82-2.44,5.15-2.86,8.94-.67,5.74,3.31,10.38,11.35,10.36,17.94A11.14,11.14,0,0,1,47,85.77Zm-.9,10.49c2.15,1.23,3.9.23,3.9-2.23a8.65,8.65,0,0,0-3.28-6.3l-1.87-1.41.32-1.95a10,10,0,0,0,.12-1.56c0-5.41-3.8-12-8.51-14.73-3-1.75-5.77-1.55-7.34.54l-1,1.3-1.6-2.06a8.29,8.29,0,0,0-2.31-2.09c-2.18-1.26-4.06-.46-4.37,1.85l-.28,2.1L18,68.14a7.47,7.47,0,0,0-1-.72c-2.88-1.66-5.22-.32-5.23,3a11.48,11.48,0,0,0,5.19,9L46.12,96.26" fill="#8578ed"/><path d="M36.8,68.08c4.71,2.71,8.53,9.32,8.51,14.73a10,10,0,0,1-.12,1.56l-.32,1.95,1.87,1.41A8.65,8.65,0,0,1,50,94c0,2.46-1.75,3.46-3.9,2.23L16.91,79.39a11.48,11.48,0,0,1-5.19-9c0-3.29,2.35-4.63,5.23-3a7.47,7.47,0,0,1,1,.72l1.94,1.58.28-2.1c.31-2.31,2.19-3.11,4.37-1.85a8.29,8.29,0,0,1,2.31,2.09l1.6,2.06,1-1.3C31,66.53,33.77,66.33,36.8,68.08Z" fill="#e8e8f9"/><path d="M29.42,65.22l7.38-4.3c1.89-1.1,4.51-.94,7.4.72C49.94,65,54.58,73,54.56,79.59a12.48,12.48,0,0,1-.15,1.89L47,85.77a11.14,11.14,0,0,0,.15-1.89c0-6.59-4.62-14.63-10.36-17.94C33.92,64.27,31.31,64.12,29.42,65.22Z" fill="#6a58db"/></g><polygon points="31.4 72.75 35.8 81.54 34.11 80.56 34.09 86.76 28.63 83.61 28.65 77.41 26.97 76.44 31.4 72.75" fill="#a6a1e2"/><g opacity="0.45"><path d="M88.59,197.26,142,228.07,70.59,269.54,17.22,238.73ZM101,244.35l.44-.26a.62.62,0,0,0,0-1.17L62.53,220.45a2.22,2.22,0,0,0-2,0l-.44.26a.62.62,0,0,0,0,1.17L99,244.35a2.22,2.22,0,0,0,2,0m5.9-3.44.45-.25a.62.62,0,0,0,0-1.17L68.44,217a2.22,2.22,0,0,0-2,0l-.45.26a.61.61,0,0,0,0,1.16l38.93,22.48a2.19,2.19,0,0,0,2,0M85.54,253.34l.44-.25a.62.62,0,0,0,0-1.17L47.05,229.45a2.22,2.22,0,0,0-2,0l-.44.26a.61.61,0,0,0,0,1.16l38.93,22.47a2.22,2.22,0,0,0,2,0m33.19-19.29.44-.25a.62.62,0,0,0,0-1.17L80.24,210.16a2.22,2.22,0,0,0-2,0l-.44.26c-.56.32-.55.84,0,1.16l38.92,22.47a2.19,2.19,0,0,0,2,0m-39.1,22.72.45-.25a.62.62,0,0,0,0-1.17L41.15,232.88a2.22,2.22,0,0,0-2,0l-.45.26a.61.61,0,0,0,0,1.16l38.93,22.47a2.17,2.17,0,0,0,2,0m33.2-19.29.44-.25a.62.62,0,0,0,0-1.17L74.34,213.59a2.22,2.22,0,0,0-2,0l-.44.26a.61.61,0,0,0,0,1.16l38.93,22.47a2.19,2.19,0,0,0,2,0M84.14,206.73l-.45.26a.61.61,0,0,0,0,1.16l18.5,10.68a2.22,2.22,0,0,0,2,0l.44-.26a.61.61,0,0,0,0-1.16l-18.5-10.68a2.19,2.19,0,0,0-2,0M50.94,226l-.44.26a.61.61,0,0,0,0,1.16L69,238.12a2.2,2.2,0,0,0,2,0l.45-.26a.61.61,0,0,0,0-1.16L53,226a2.19,2.19,0,0,0-2,0" fill="#cccce2"/></g><path d="M85.82,196.79l53.36,30.8L67.81,269.07,14.45,238.26Zm12.43,47.08.44-.25a.62.62,0,0,0,0-1.17L59.76,220a2.22,2.22,0,0,0-2,0l-.44.26a.61.61,0,0,0,0,1.16l38.93,22.48a2.19,2.19,0,0,0,2,0m5.9-3.43.45-.25a.62.62,0,0,0,0-1.17L65.66,216.55a2.2,2.2,0,0,0-2,0l-.45.26a.61.61,0,0,0,0,1.16l38.93,22.48a2.19,2.19,0,0,0,2,0M82.77,252.87l.44-.26c.56-.32.55-.84,0-1.16L44.28,229a2.19,2.19,0,0,0-2,0l-.44.26a.61.61,0,0,0,0,1.16l38.93,22.47a2.22,2.22,0,0,0,2,0M116,233.58l.44-.26a.61.61,0,0,0,0-1.16L77.47,209.69a2.19,2.19,0,0,0-2,0L75,210c-.56.32-.55.84,0,1.16L114,233.58a2.19,2.19,0,0,0,2,0M76.86,256.3l.45-.25a.62.62,0,0,0,0-1.17L38.37,232.41a2.17,2.17,0,0,0-2,0l-.45.26a.61.61,0,0,0,0,1.16L74.85,256.3a2.19,2.19,0,0,0,2,0M110.06,237l.44-.26c.55-.31.55-.84,0-1.16L71.57,213.12a2.22,2.22,0,0,0-2,0l-.44.26a.61.61,0,0,0,0,1.16L108.05,237a2.19,2.19,0,0,0,2,0M81.37,206.26l-.45.25a.62.62,0,0,0,0,1.17l18.5,10.68a2.22,2.22,0,0,0,2,0l.44-.26c.56-.32.55-.84,0-1.16l-18.5-10.68a2.17,2.17,0,0,0-2,0m-33.2,19.29-.44.25a.62.62,0,0,0,0,1.17l18.49,10.68a2.22,2.22,0,0,0,2,0l.45-.26a.61.61,0,0,0,0-1.16l-18.5-10.68a2.19,2.19,0,0,0-2,0" fill="#e8e8f9"/><path d="M101.87,216.94c.56.32.57.84,0,1.16l-.44.26a2.22,2.22,0,0,1-2,0l-18.5-10.68a.62.62,0,0,1,0-1.17l.45-.25a2.17,2.17,0,0,1,2,0Z" fill="#a6a1e2"/><path d="M83.2,251.45c.56.32.57.84,0,1.16l-.44.26a2.22,2.22,0,0,1-2,0L41.83,230.4a.61.61,0,0,1,0-1.16l.44-.26a2.19,2.19,0,0,1,2,0Z" fill="#a6a1e2"/><g style="isolation:isolate"><path d="M68.68,236.23a.61.61,0,0,1,0,1.16l-.45.26a2.22,2.22,0,0,1-2,0L47.74,227a.62.62,0,0,1,0-1.17l.44-.25a2.19,2.19,0,0,1,2,0Z" fill="#a6a1e2"/><path d="M104.59,239a.62.62,0,0,1,0,1.17l-.45.25a2.19,2.19,0,0,1-2,0L63.21,218a.61.61,0,0,1,0-1.16l.45-.26a2.2,2.2,0,0,1,2,0Z" fill="#a6a1e2"/><path d="M98.69,242.45a.62.62,0,0,1,0,1.17l-.44.25a2.19,2.19,0,0,1-2,0L57.31,221.4a.61.61,0,0,1,0-1.16l.44-.26a2.22,2.22,0,0,1,2,0Z" fill="#a6a1e2"/><path d="M77.3,254.88a.62.62,0,0,1,0,1.17l-.45.25a2.19,2.19,0,0,1-2,0L35.93,233.83a.61.61,0,0,1,0-1.16l.45-.26a2.17,2.17,0,0,1,2,0Z" fill="#a6a1e2"/></g><path d="M110.49,235.59c.56.32.56.85,0,1.16l-.44.26a2.19,2.19,0,0,1-2,0L69.12,214.54a.61.61,0,0,1,0-1.16l.44-.26a2.22,2.22,0,0,1,2,0Z" fill="#a6a1e2"/><path d="M116.4,232.16a.61.61,0,0,1,0,1.16l-.44.26a2.19,2.19,0,0,1-2,0L75,211.11c-.56-.32-.57-.84,0-1.16l.44-.26a2.19,2.19,0,0,1,2,0Z" fill="#a6a1e2"/><path d="M142.86,241.55a3.29,3.29,0,0,0-.64-1,4,4,0,0,0-1-.82,3.56,3.56,0,0,0-3.46-.09L95.06,265.32l-2.42,3.87-.78,1.24c-.17.26.15.61.5.56l1.32-.19,5.58-.79,40.12-24.18h0l2.55-1.54a2.18,2.18,0,0,0,1.08-1.7A2.71,2.71,0,0,0,142.86,241.55Z" fill="#cccce2" opacity="0.2"/><path d="M140.52,241.54,95.24,268.06l.53-2.37.35-1.55-1.53-.45-2.31-.7,45.28-26.51a2.94,2.94,0,0,1,3.22.16,3.06,3.06,0,0,1,1.18,2,3.37,3.37,0,0,1-.07,1.1A3,3,0,0,1,140.52,241.54Z" fill="#1ab0c4"/><path d="M95.24,268.06l-5.38.73-1.28.17a.37.37,0,0,1-.35-.6l1-1.3L92.28,263l3.84,1.15Z" fill="#d3d3ea"/><path d="M89.86,268.79l-1.28.17a.37.37,0,0,1-.35-.6l1-1.3,1.43,0a.28.28,0,0,1,.23.45Z" fill="#4d3d99"/><path d="M142,238.65l-46.19,27,.35-1.55-1.53-.45,46.19-27.05a3.06,3.06,0,0,1,1.18,2Z" fill="#20d8e5"/><path d="M140.52,241.54l-2.7,1.59c2-1.16-1-6.23-3-5.07l2.71-1.58a2.94,2.94,0,0,1,3.22.16,3.06,3.06,0,0,1,1.18,2,3.37,3.37,0,0,1-.07,1.1A3,3,0,0,1,140.52,241.54Z" fill="#4d3d99"/></g></g></g></svg>